<svg width="24" height="24" viewBox="0 0 24 24" fill="none" xmlns="http://www.w3.org/2000/svg">
<g clip-path="url(#clip0_447_2854)">
<path d="M23.7138 12.2247C23.7138 11.2414 23.634 10.5239 23.4614 9.77979H12.2334V14.2178H18.824C18.6911 15.3207 17.9736 16.9816 16.3791 18.0977L16.3567 18.2463L19.9068 20.9965L20.1528 21.021C22.4116 18.9349 23.7138 15.8654 23.7138 12.2247Z" fill="#4285F4"/>
<path d="M12.234 23.9178C15.4628 23.9178 18.1734 22.8548 20.1533 21.0211L16.3797 18.0978C15.3698 18.8021 14.0145 19.2937 12.234 19.2937C9.07158 19.2937 6.38751 17.2076 5.43072 14.3242L5.29048 14.3361L1.59906 17.193L1.55078 17.3271C3.51732 21.2337 7.55674 23.9178 12.234 23.9178Z" fill="#34A853"/>
<path d="M5.42992 14.3238C5.17747 13.5797 5.03136 12.7824 5.03136 11.9586C5.03136 11.1347 5.17747 10.3375 5.41664 9.59342L5.40996 9.43494L1.67228 6.53223L1.54999 6.59039C0.739483 8.21149 0.274414 10.0319 0.274414 11.9586C0.274414 13.8853 0.739483 15.7056 1.54999 17.3267L5.42992 14.3238Z" fill="#FBBC05"/>
<path d="M12.234 4.62403C14.4795 4.62403 15.9943 5.59401 16.858 6.40461L20.233 3.10928C18.1602 1.1826 15.4628 0 12.234 0C7.55674 0 3.51732 2.68406 1.55078 6.59056L5.41744 9.59359C6.38751 6.7102 9.07157 4.62403 12.234 4.62403Z" fill="#EB4335"/>
</g>
<defs>
<clipPath id="clip0_447_2854">
<rect width="24" height="24" fill="white"/>
</clipPath>
</defs>
</svg>
