<svg width="153" height="32" viewBox="0 0 153 32" fill="none" xmlns="http://www.w3.org/2000/svg">
<mask id="path-1-inside-1_543_1090" fill="white">
<path fill-rule="evenodd" clip-rule="evenodd" d="M38.2345 12.5762C38.2355 12.9372 38.234 14.7739 38.2331 14.7822C38.232 14.7942 38.2234 14.8826 38.1269 14.8892C38.0639 14.8935 32.2029 14.8852 31.3218 14.8898C31.1768 14.8906 31.1576 14.856 30.8295 14.9637C30.8068 14.9711 30.5749 15.0876 30.5429 15.1125C30.5238 15.1274 30.3932 15.2291 30.336 15.3329C30.2694 15.4537 30.2303 15.474 30.153 15.7023C30.1298 15.771 30.1391 15.9061 30.132 15.9442C30.0966 16.1319 30.1008 16.1324 30.1334 16.3211C30.1453 16.3895 30.1191 16.5095 30.1576 16.6234C30.3536 17.2037 30.513 17.459 30.5406 17.5368C30.5957 17.6925 30.5938 17.692 30.6642 17.8423C30.7298 17.9825 30.8452 18.3072 30.8865 18.405C30.9509 18.5574 30.9383 18.5611 31.0057 18.7127C31.039 18.7878 31.0433 18.7976 31.3395 19.6828C31.4415 19.9876 31.4164 19.9939 31.5236 20.2954C31.5568 20.3888 31.5423 20.4513 31.5526 20.4908C31.5843 20.6119 31.5959 20.6083 31.6077 20.734C31.6213 20.8786 31.6679 20.8705 31.6684 21.0386C31.6689 21.2226 31.7312 21.2119 31.7326 21.3457C31.7354 21.598 31.7101 21.6008 31.7627 21.7704C31.8107 21.9252 31.7911 21.9288 31.7955 22.8173C31.7967 23.07 31.8 23.0706 31.7588 23.188C31.7 23.3554 31.7536 23.6357 31.7214 23.7269C31.7128 23.7515 31.697 23.7731 31.6877 23.7975C31.6575 23.8768 31.6768 24.0493 31.6607 24.0969C31.6524 24.1211 31.637 24.1422 31.6278 24.166C31.5974 24.2442 31.6125 24.362 31.5989 24.4046C31.5913 24.4285 31.5765 24.4496 31.5675 24.473C31.5209 24.5938 31.5689 24.6036 31.5256 24.7264C31.4742 24.8722 31.4931 24.8768 31.4412 25.0234C31.4212 25.08 31.4338 25.0825 31.4141 25.1401C31.4059 25.1639 31.3904 25.1845 31.3818 25.2081C31.3266 25.3596 31.2181 25.7727 31.0968 26.0154C31.0728 26.0635 31.0507 26.1894 30.9121 26.4449C30.7808 26.687 30.7973 26.6943 30.6662 26.9355C30.6121 27.035 30.6166 27.0361 30.5502 27.1283C30.5212 27.1684 30.444 27.3364 30.3896 27.4069C30.3315 27.4823 30.0483 27.926 30.0217 27.9579C30.0091 27.973 29.9472 28.0234 29.9102 28.09C29.7948 28.2974 29.7426 28.2633 29.6661 28.3974C29.5465 28.6068 29.2565 28.8126 29.1774 28.9506C29.0839 29.114 29.0555 29.0893 28.8869 29.2716C28.7729 29.3949 28.7471 29.3642 28.582 29.5213C28.5669 29.5357 28.5681 29.5366 28.3957 29.7035C28.2704 29.8248 28.2499 29.7983 28.1235 29.9202C28.0126 30.0271 27.9987 30.007 27.8781 30.1022C27.7988 30.165 27.7638 30.1615 27.6592 30.2566C27.5174 30.3855 27.3423 30.4401 27.1421 30.5921C26.9996 30.7003 26.9806 30.6689 26.8367 30.777C26.7211 30.8639 26.2787 31.0664 26.229 31.0892C26.195 31.1047 26.1919 31.0961 25.8003 31.2742C25.7685 31.2886 25.1465 31.5194 25.0752 31.5442C25.0415 31.5559 25.0356 31.5332 24.6456 31.6672C24.5629 31.6956 24.5208 31.6829 24.4528 31.7065C24.4349 31.7127 24.4185 31.7229 24.4006 31.7292C24.28 31.7712 24.2732 31.7387 24.1517 31.7804C24.013 31.8281 23.9533 31.8054 23.8988 31.8199C23.8608 31.83 23.8251 31.8474 23.7873 31.8585C23.6345 31.9033 23.6253 31.8441 23.4738 31.8956C23.1521 32.005 23.1318 31.8779 22.8041 31.9725C22.6763 32.0095 22.6729 31.9972 17.8311 31.9978C14.5812 31.9977 11.3314 31.9975 8.08149 31.9973C8.06941 31.9705 8.02593 31.9811 8.0312 31.7702C8.04439 31.2466 8.1804 31.1145 8.20241 31.0349C8.20873 31.0123 8.20137 30.9872 8.20769 30.9645L8.16139 30.9455C8.17703 30.9386 8.21774 30.9568 8.28759 30.867C8.42563 30.6898 8.78663 29.8922 10.2232 30.1339C10.4254 30.1679 10.5957 30.2966 10.5873 30.1753C10.5822 30.1 10.5277 30.1139 10.4004 30.0028C10.2099 29.8365 9.67868 29.2869 9.35668 28.3381C9.15364 27.4709 8.8542 25.6225 10.7716 24.1567C11.3688 23.7001 12.062 23.5493 12.1829 23.523C12.3318 23.4906 12.415 23.4781 12.4177 23.3685C12.4219 23.1948 12.4003 22.9713 12.397 22.9369C12.3956 22.9228 12.3925 22.7666 12.3809 22.7494C12.3632 22.7232 12.3262 22.7141 12.3085 22.6878C12.3421 22.6587 12.4204 22.576 12.4299 22.566C12.8196 22.1554 13.0244 21.7197 13.1516 21.4591C13.4451 20.8581 13.5262 20.0602 13.5389 19.9351C13.5852 19.4806 13.4837 18.7668 13.3062 18.333C13.1722 18.0057 13.1692 18.0075 13.1585 17.9788C13.1026 17.8293 13.0782 17.8446 12.9272 17.6752C14.0826 17.4231 14.9406 17.1331 15.9786 16.5486C16.0806 16.4912 16.0626 16.4714 16.0985 16.4383C16.1541 16.5976 16.1548 16.5978 16.2575 16.7319C16.2864 16.7696 16.4252 16.9592 16.4398 16.9791C16.4529 16.997 16.5047 17.0874 16.5649 17.1589C16.6639 17.2762 16.6458 17.2893 16.7488 17.4017C16.8533 17.5157 16.8298 17.533 16.9327 17.647C17.0361 17.7615 17.0131 17.7782 17.1165 17.8923C17.22 18.0065 17.1985 18.0216 17.3013 18.1371C17.3316 18.171 17.3322 18.1688 17.3605 18.2034C17.4576 18.322 17.4524 18.3426 17.5459 18.444C17.6504 18.5574 17.6283 18.5734 17.7307 18.689C17.8396 18.8118 18.3237 19.468 18.3422 19.4901C18.4354 19.602 18.5911 19.8503 18.6499 19.9164C18.7531 20.0324 18.737 20.0426 18.8318 20.1671C18.8508 20.1921 18.9157 20.2974 18.957 20.3455C19.0583 20.4635 19.0473 20.47 19.1376 20.5979C19.1478 20.6124 19.1425 20.6146 19.26 20.7822C19.2701 20.7966 19.267 20.7984 19.3819 20.9664C19.3981 20.9901 19.3814 21 19.5662 21.2732C19.5883 21.306 19.5738 21.3139 19.8121 21.7028C19.861 21.7825 20.2853 22.6376 20.3032 22.6865C20.3936 22.9338 20.4029 22.9291 20.4884 23.1773C20.6769 23.7246 20.6821 23.7495 20.6928 23.8009C20.7487 24.0676 20.7861 24.187 20.7965 24.2199C20.8257 24.313 20.814 24.3729 20.8245 24.4143C20.8342 24.4525 20.8504 24.4888 20.8613 24.5267C20.9055 24.68 20.8494 24.6884 20.8976 24.8406C20.9727 25.0779 20.9378 25.0821 20.9394 25.3315C20.9475 26.593 20.9372 26.5946 20.9058 26.6838C20.8367 26.8795 20.9249 26.9016 20.8456 27.1138C20.7904 27.2618 20.8434 27.2731 20.7863 27.4214C20.7791 27.4402 20.698 27.6507 20.8347 27.6678C20.9525 27.6827 20.9962 27.5401 21.2053 27.4186C21.2653 27.3837 21.3102 27.3576 21.829 26.8148C21.8594 26.783 21.8584 26.7842 21.8883 26.7512C21.9765 26.6542 21.9564 26.6396 22.0462 26.5428C22.1454 26.4359 22.4133 25.9936 22.4361 25.9477C22.693 25.4329 22.6883 25.431 22.828 25.0328C22.8364 25.0088 22.85 24.987 22.8591 24.9633C22.8945 24.8705 22.8694 24.8655 22.902 24.772C22.9531 24.6255 22.9341 24.6209 22.9855 24.4744C23.0179 24.3819 22.9958 24.2815 23.0102 24.2333C23.0174 24.2095 23.0316 24.1882 23.0405 24.165C23.0994 24.0122 23.0237 23.8711 23.0872 23.6695C23.1164 23.5767 23.1269 23.5772 23.1235 22.817C23.1223 22.5545 23.079 22.5611 23.062 22.3872C23.0423 22.1845 23.0946 22.1781 23.0227 21.9671C22.9765 21.8313 23.0236 21.7644 22.9877 21.6501C22.982 21.632 22.9721 21.6155 22.9657 21.5978C22.9218 21.4754 22.9649 21.4674 22.9268 21.3433C22.9212 21.3252 22.9115 21.3086 22.9051 21.2907C22.8618 21.1685 22.9004 21.1611 22.8591 21.039C22.7466 20.706 22.7646 20.6839 22.6177 20.2402C22.6118 20.2225 22.3386 19.4462 22.2734 19.3104C22.2553 19.2726 22.2654 19.269 22.0672 18.8289C21.9824 18.6406 21.9957 18.6362 21.9045 18.4516C21.6796 17.996 21.707 17.9843 21.475 17.5313C21.4479 17.4785 21.2792 17.1489 21.1476 16.8664C21.0577 16.6737 20.9568 16.4817 20.9395 16.4487C20.9241 16.4195 20.9299 16.4174 20.7757 16.0712C20.6501 15.7892 20.4676 15.5146 20.2831 15.0297C20.2637 14.9787 20.0677 14.6069 19.914 14.1717C19.9048 14.1457 19.8462 14.0267 19.8347 13.995C19.7417 13.7379 19.6616 13.5508 19.5264 13.1366C19.4268 12.8318 19.4403 12.8288 19.3426 12.5231C19.3145 12.4354 19.3251 12.4046 19.3016 12.3317C19.2721 12.2396 19.2702 12.2415 19.2579 12.1454C19.2498 12.0815 19.2086 11.9846 19.1993 11.9011C19.1858 11.7801 19.1878 11.7807 19.1555 11.6644C19.1071 11.4901 19.156 11.4823 19.0998 11.2954C19.0517 11.1352 19.0879 10.8946 19.0601 10.7364C19.0227 10.5241 19.0135 10.5241 19.0161 9.81703C19.0172 9.50766 19.0258 9.5095 19.0601 9.32683C19.0964 9.13317 19.0365 8.93835 19.1094 8.70993C19.15 8.58287 19.1295 8.41387 19.1473 8.3531C19.1566 8.32145 19.1879 8.29 19.1967 8.16226C19.2034 8.06562 19.2051 8.06715 19.2377 7.97591C19.2729 7.8773 19.244 7.8708 19.2933 7.72847C19.3031 7.70039 19.2929 7.69781 19.3873 7.369C19.5859 6.67754 19.729 6.39092 19.7692 6.31034C19.783 6.28275 19.7734 6.27895 19.9183 5.9548C19.9665 5.8473 20.1677 5.46048 20.2383 5.34918C20.3058 5.24291 20.3481 5.13493 20.5087 4.89847C20.8959 4.32848 20.8898 4.32413 20.965 4.24232C21.0479 4.15212 21.0651 4.08853 21.2102 3.93602C21.3758 3.76199 21.3499 3.74059 21.5186 3.56999C22.13 2.95187 22.1992 2.90017 22.2657 2.8505C22.4776 2.69229 22.4551 2.66476 22.6776 2.52225C22.762 2.46822 22.7608 2.42916 22.921 2.33589C22.9706 2.30701 23.0327 2.24759 23.0559 2.23367C23.2826 2.09722 23.2675 2.0765 23.4918 1.93558C23.5231 1.91596 23.5271 1.92325 23.8906 1.70219C24.0076 1.63099 24.6551 1.31347 24.6996 1.29415C25.6734 0.87183 25.9103 0.866925 26.3486 0.724535C26.3583 0.721408 26.9123 0.600604 26.9613 0.589934C27.107 0.558169 27.1105 0.58699 27.2704 0.544556C27.4736 0.490715 27.5831 0.5253 27.7047 0.500465C27.9016 0.460238 27.9007 0.455823 28.1947 0.452328C29.3801 0.438162 29.4428 0.455332 29.5471 0.483908C29.7872 0.549645 29.7992 0.472012 30.0381 0.545782C30.1556 0.582023 30.2859 0.574235 30.3318 0.587788C30.3562 0.595085 30.3787 0.608208 30.4029 0.616118C30.4221 0.622373 30.4418 0.627279 30.4617 0.630161C30.587 0.648312 30.5856 0.647638 30.708 0.682591C30.7672 0.699516 30.7687 0.687252 30.8274 0.702705C30.8701 0.713865 30.9109 0.731403 30.9532 0.743913C31.0473 0.771814 31.0485 0.763965 31.1401 0.797079C31.2096 0.82216 31.421 0.856868 31.7515 0.985828C31.8418 1.02103 31.844 1.01232 31.9343 1.04997C31.9966 1.07591 32.4047 1.21854 32.7221 1.37626C33.1962 1.6118 33.3456 1.7066 33.3974 1.73947C33.5624 1.84427 33.5672 1.83385 33.7288 1.94453C33.8208 2.00757 33.8254 1.99837 33.9147 2.06693C34.0224 2.14972 34.033 2.1331 34.1379 2.21913C34.2148 2.28223 34.271 2.30161 34.3848 2.40083C34.466 2.47166 34.5226 2.48717 34.6277 2.58713C34.8016 2.75233 34.8222 2.72706 34.9939 2.89533C35.2737 3.16938 35.2753 3.16551 35.5492 3.44336C35.9012 3.80056 35.9326 3.84545 35.9603 3.885C36.0491 4.01182 36.0555 4.00507 36.1564 4.12189C36.1608 4.12698 36.1887 4.15923 36.207 4.18916C36.2551 4.2679 36.2497 4.27059 36.3112 4.33958C36.4153 4.45634 36.401 4.46554 36.4927 4.59168C36.5108 4.61651 36.55 4.68495 36.6161 4.7749C36.6382 4.80483 36.6835 4.87927 36.7387 4.96004C36.9269 5.23568 36.9268 5.29553 37.1041 5.57546C37.2024 5.73048 37.5643 6.55937 37.683 6.93889C37.8431 7.45062 37.8456 7.44878 37.9723 7.9702C38.002 8.09254 37.9878 8.09401 38.0221 8.21684C38.0724 8.39676 38.0408 8.40203 38.0904 8.58318C38.1256 8.71171 38.1025 8.84747 38.1261 8.95902C38.2029 9.32174 38.1701 9.32462 38.1771 9.69457C38.1874 10.2374 38.2298 10.6192 38.2345 12.5762Z"/>
</mask>
<path fill-rule="evenodd" clip-rule="evenodd" d="M38.2345 12.5762C38.2355 12.9372 38.234 14.7739 38.2331 14.7822C38.232 14.7942 38.2234 14.8826 38.1269 14.8892C38.0639 14.8935 32.2029 14.8852 31.3218 14.8898C31.1768 14.8906 31.1576 14.856 30.8295 14.9637C30.8068 14.9711 30.5749 15.0876 30.5429 15.1125C30.5238 15.1274 30.3932 15.2291 30.336 15.3329C30.2694 15.4537 30.2303 15.474 30.153 15.7023C30.1298 15.771 30.1391 15.9061 30.132 15.9442C30.0966 16.1319 30.1008 16.1324 30.1334 16.3211C30.1453 16.3895 30.1191 16.5095 30.1576 16.6234C30.3536 17.2037 30.513 17.459 30.5406 17.5368C30.5957 17.6925 30.5938 17.692 30.6642 17.8423C30.7298 17.9825 30.8452 18.3072 30.8865 18.405C30.9509 18.5574 30.9383 18.5611 31.0057 18.7127C31.039 18.7878 31.0433 18.7976 31.3395 19.6828C31.4415 19.9876 31.4164 19.9939 31.5236 20.2954C31.5568 20.3888 31.5423 20.4513 31.5526 20.4908C31.5843 20.6119 31.5959 20.6083 31.6077 20.734C31.6213 20.8786 31.6679 20.8705 31.6684 21.0386C31.6689 21.2226 31.7312 21.2119 31.7326 21.3457C31.7354 21.598 31.7101 21.6008 31.7627 21.7704C31.8107 21.9252 31.7911 21.9288 31.7955 22.8173C31.7967 23.07 31.8 23.0706 31.7588 23.188C31.7 23.3554 31.7536 23.6357 31.7214 23.7269C31.7128 23.7515 31.697 23.7731 31.6877 23.7975C31.6575 23.8768 31.6768 24.0493 31.6607 24.0969C31.6524 24.1211 31.637 24.1422 31.6278 24.166C31.5974 24.2442 31.6125 24.362 31.5989 24.4046C31.5913 24.4285 31.5765 24.4496 31.5675 24.473C31.5209 24.5938 31.5689 24.6036 31.5256 24.7264C31.4742 24.8722 31.4931 24.8768 31.4412 25.0234C31.4212 25.08 31.4338 25.0825 31.4141 25.1401C31.4059 25.1639 31.3904 25.1845 31.3818 25.2081C31.3266 25.3596 31.2181 25.7727 31.0968 26.0154C31.0728 26.0635 31.0507 26.1894 30.9121 26.4449C30.7808 26.687 30.7973 26.6943 30.6662 26.9355C30.6121 27.035 30.6166 27.0361 30.5502 27.1283C30.5212 27.1684 30.444 27.3364 30.3896 27.4069C30.3315 27.4823 30.0483 27.926 30.0217 27.9579C30.0091 27.973 29.9472 28.0234 29.9102 28.09C29.7948 28.2974 29.7426 28.2633 29.6661 28.3974C29.5465 28.6068 29.2565 28.8126 29.1774 28.9506C29.0839 29.114 29.0555 29.0893 28.8869 29.2716C28.7729 29.3949 28.7471 29.3642 28.582 29.5213C28.5669 29.5357 28.5681 29.5366 28.3957 29.7035C28.2704 29.8248 28.2499 29.7983 28.1235 29.9202C28.0126 30.0271 27.9987 30.007 27.8781 30.1022C27.7988 30.165 27.7638 30.1615 27.6592 30.2566C27.5174 30.3855 27.3423 30.4401 27.1421 30.5921C26.9996 30.7003 26.9806 30.6689 26.8367 30.777C26.7211 30.8639 26.2787 31.0664 26.229 31.0892C26.195 31.1047 26.1919 31.0961 25.8003 31.2742C25.7685 31.2886 25.1465 31.5194 25.0752 31.5442C25.0415 31.5559 25.0356 31.5332 24.6456 31.6672C24.5629 31.6956 24.5208 31.6829 24.4528 31.7065C24.4349 31.7127 24.4185 31.7229 24.4006 31.7292C24.28 31.7712 24.2732 31.7387 24.1517 31.7804C24.013 31.8281 23.9533 31.8054 23.8988 31.8199C23.8608 31.83 23.8251 31.8474 23.7873 31.8585C23.6345 31.9033 23.6253 31.8441 23.4738 31.8956C23.1521 32.005 23.1318 31.8779 22.8041 31.9725C22.6763 32.0095 22.6729 31.9972 17.8311 31.9978C14.5812 31.9977 11.3314 31.9975 8.08149 31.9973C8.06941 31.9705 8.02593 31.9811 8.0312 31.7702C8.04439 31.2466 8.1804 31.1145 8.20241 31.0349C8.20873 31.0123 8.20137 30.9872 8.20769 30.9645L8.16139 30.9455C8.17703 30.9386 8.21774 30.9568 8.28759 30.867C8.42563 30.6898 8.78663 29.8922 10.2232 30.1339C10.4254 30.1679 10.5957 30.2966 10.5873 30.1753C10.5822 30.1 10.5277 30.1139 10.4004 30.0028C10.2099 29.8365 9.67868 29.2869 9.35668 28.3381C9.15364 27.4709 8.8542 25.6225 10.7716 24.1567C11.3688 23.7001 12.062 23.5493 12.1829 23.523C12.3318 23.4906 12.415 23.4781 12.4177 23.3685C12.4219 23.1948 12.4003 22.9713 12.397 22.9369C12.3956 22.9228 12.3925 22.7666 12.3809 22.7494C12.3632 22.7232 12.3262 22.7141 12.3085 22.6878C12.3421 22.6587 12.4204 22.576 12.4299 22.566C12.8196 22.1554 13.0244 21.7197 13.1516 21.4591C13.4451 20.8581 13.5262 20.0602 13.5389 19.9351C13.5852 19.4806 13.4837 18.7668 13.3062 18.333C13.1722 18.0057 13.1692 18.0075 13.1585 17.9788C13.1026 17.8293 13.0782 17.8446 12.9272 17.6752C14.0826 17.4231 14.9406 17.1331 15.9786 16.5486C16.0806 16.4912 16.0626 16.4714 16.0985 16.4383C16.1541 16.5976 16.1548 16.5978 16.2575 16.7319C16.2864 16.7696 16.4252 16.9592 16.4398 16.9791C16.4529 16.997 16.5047 17.0874 16.5649 17.1589C16.6639 17.2762 16.6458 17.2893 16.7488 17.4017C16.8533 17.5157 16.8298 17.533 16.9327 17.647C17.0361 17.7615 17.0131 17.7782 17.1165 17.8923C17.22 18.0065 17.1985 18.0216 17.3013 18.1371C17.3316 18.171 17.3322 18.1688 17.3605 18.2034C17.4576 18.322 17.4524 18.3426 17.5459 18.444C17.6504 18.5574 17.6283 18.5734 17.7307 18.689C17.8396 18.8118 18.3237 19.468 18.3422 19.4901C18.4354 19.602 18.5911 19.8503 18.6499 19.9164C18.7531 20.0324 18.737 20.0426 18.8318 20.1671C18.8508 20.1921 18.9157 20.2974 18.957 20.3455C19.0583 20.4635 19.0473 20.47 19.1376 20.5979C19.1478 20.6124 19.1425 20.6146 19.26 20.7822C19.2701 20.7966 19.267 20.7984 19.3819 20.9664C19.3981 20.9901 19.3814 21 19.5662 21.2732C19.5883 21.306 19.5738 21.3139 19.8121 21.7028C19.861 21.7825 20.2853 22.6376 20.3032 22.6865C20.3936 22.9338 20.4029 22.9291 20.4884 23.1773C20.6769 23.7246 20.6821 23.7495 20.6928 23.8009C20.7487 24.0676 20.7861 24.187 20.7965 24.2199C20.8257 24.313 20.814 24.3729 20.8245 24.4143C20.8342 24.4525 20.8504 24.4888 20.8613 24.5267C20.9055 24.68 20.8494 24.6884 20.8976 24.8406C20.9727 25.0779 20.9378 25.0821 20.9394 25.3315C20.9475 26.593 20.9372 26.5946 20.9058 26.6838C20.8367 26.8795 20.9249 26.9016 20.8456 27.1138C20.7904 27.2618 20.8434 27.2731 20.7863 27.4214C20.7791 27.4402 20.698 27.6507 20.8347 27.6678C20.9525 27.6827 20.9962 27.5401 21.2053 27.4186C21.2653 27.3837 21.3102 27.3576 21.829 26.8148C21.8594 26.783 21.8584 26.7842 21.8883 26.7512C21.9765 26.6542 21.9564 26.6396 22.0462 26.5428C22.1454 26.4359 22.4133 25.9936 22.4361 25.9477C22.693 25.4329 22.6883 25.431 22.828 25.0328C22.8364 25.0088 22.85 24.987 22.8591 24.9633C22.8945 24.8705 22.8694 24.8655 22.902 24.772C22.9531 24.6255 22.9341 24.6209 22.9855 24.4744C23.0179 24.3819 22.9958 24.2815 23.0102 24.2333C23.0174 24.2095 23.0316 24.1882 23.0405 24.165C23.0994 24.0122 23.0237 23.8711 23.0872 23.6695C23.1164 23.5767 23.1269 23.5772 23.1235 22.817C23.1223 22.5545 23.079 22.5611 23.062 22.3872C23.0423 22.1845 23.0946 22.1781 23.0227 21.9671C22.9765 21.8313 23.0236 21.7644 22.9877 21.6501C22.982 21.632 22.9721 21.6155 22.9657 21.5978C22.9218 21.4754 22.9649 21.4674 22.9268 21.3433C22.9212 21.3252 22.9115 21.3086 22.9051 21.2907C22.8618 21.1685 22.9004 21.1611 22.8591 21.039C22.7466 20.706 22.7646 20.6839 22.6177 20.2402C22.6118 20.2225 22.3386 19.4462 22.2734 19.3104C22.2553 19.2726 22.2654 19.269 22.0672 18.8289C21.9824 18.6406 21.9957 18.6362 21.9045 18.4516C21.6796 17.996 21.707 17.9843 21.475 17.5313C21.4479 17.4785 21.2792 17.1489 21.1476 16.8664C21.0577 16.6737 20.9568 16.4817 20.9395 16.4487C20.9241 16.4195 20.9299 16.4174 20.7757 16.0712C20.6501 15.7892 20.4676 15.5146 20.2831 15.0297C20.2637 14.9787 20.0677 14.6069 19.914 14.1717C19.9048 14.1457 19.8462 14.0267 19.8347 13.995C19.7417 13.7379 19.6616 13.5508 19.5264 13.1366C19.4268 12.8318 19.4403 12.8288 19.3426 12.5231C19.3145 12.4354 19.3251 12.4046 19.3016 12.3317C19.2721 12.2396 19.2702 12.2415 19.2579 12.1454C19.2498 12.0815 19.2086 11.9846 19.1993 11.9011C19.1858 11.7801 19.1878 11.7807 19.1555 11.6644C19.1071 11.4901 19.156 11.4823 19.0998 11.2954C19.0517 11.1352 19.0879 10.8946 19.0601 10.7364C19.0227 10.5241 19.0135 10.5241 19.0161 9.81703C19.0172 9.50766 19.0258 9.5095 19.0601 9.32683C19.0964 9.13317 19.0365 8.93835 19.1094 8.70993C19.15 8.58287 19.1295 8.41387 19.1473 8.3531C19.1566 8.32145 19.1879 8.29 19.1967 8.16226C19.2034 8.06562 19.2051 8.06715 19.2377 7.97591C19.2729 7.8773 19.244 7.8708 19.2933 7.72847C19.3031 7.70039 19.2929 7.69781 19.3873 7.369C19.5859 6.67754 19.729 6.39092 19.7692 6.31034C19.783 6.28275 19.7734 6.27895 19.9183 5.9548C19.9665 5.8473 20.1677 5.46048 20.2383 5.34918C20.3058 5.24291 20.3481 5.13493 20.5087 4.89847C20.8959 4.32848 20.8898 4.32413 20.965 4.24232C21.0479 4.15212 21.0651 4.08853 21.2102 3.93602C21.3758 3.76199 21.3499 3.74059 21.5186 3.56999C22.13 2.95187 22.1992 2.90017 22.2657 2.8505C22.4776 2.69229 22.4551 2.66476 22.6776 2.52225C22.762 2.46822 22.7608 2.42916 22.921 2.33589C22.9706 2.30701 23.0327 2.24759 23.0559 2.23367C23.2826 2.09722 23.2675 2.0765 23.4918 1.93558C23.5231 1.91596 23.5271 1.92325 23.8906 1.70219C24.0076 1.63099 24.6551 1.31347 24.6996 1.29415C25.6734 0.87183 25.9103 0.866925 26.3486 0.724535C26.3583 0.721408 26.9123 0.600604 26.9613 0.589934C27.107 0.558169 27.1105 0.58699 27.2704 0.544556C27.4736 0.490715 27.5831 0.5253 27.7047 0.500465C27.9016 0.460238 27.9007 0.455823 28.1947 0.452328C29.3801 0.438162 29.4428 0.455332 29.5471 0.483908C29.7872 0.549645 29.7992 0.472012 30.0381 0.545782C30.1556 0.582023 30.2859 0.574235 30.3318 0.587788C30.3562 0.595085 30.3787 0.608208 30.4029 0.616118C30.4221 0.622373 30.4418 0.627279 30.4617 0.630161C30.587 0.648312 30.5856 0.647638 30.708 0.682591C30.7672 0.699516 30.7687 0.687252 30.8274 0.702705C30.8701 0.713865 30.9109 0.731403 30.9532 0.743913C31.0473 0.771814 31.0485 0.763965 31.1401 0.797079C31.2096 0.82216 31.421 0.856868 31.7515 0.985828C31.8418 1.02103 31.844 1.01232 31.9343 1.04997C31.9966 1.07591 32.4047 1.21854 32.7221 1.37626C33.1962 1.6118 33.3456 1.7066 33.3974 1.73947C33.5624 1.84427 33.5672 1.83385 33.7288 1.94453C33.8208 2.00757 33.8254 1.99837 33.9147 2.06693C34.0224 2.14972 34.033 2.1331 34.1379 2.21913C34.2148 2.28223 34.271 2.30161 34.3848 2.40083C34.466 2.47166 34.5226 2.48717 34.6277 2.58713C34.8016 2.75233 34.8222 2.72706 34.9939 2.89533C35.2737 3.16938 35.2753 3.16551 35.5492 3.44336C35.9012 3.80056 35.9326 3.84545 35.9603 3.885C36.0491 4.01182 36.0555 4.00507 36.1564 4.12189C36.1608 4.12698 36.1887 4.15923 36.207 4.18916C36.2551 4.2679 36.2497 4.27059 36.3112 4.33958C36.4153 4.45634 36.401 4.46554 36.4927 4.59168C36.5108 4.61651 36.55 4.68495 36.6161 4.7749C36.6382 4.80483 36.6835 4.87927 36.7387 4.96004C36.9269 5.23568 36.9268 5.29553 37.1041 5.57546C37.2024 5.73048 37.5643 6.55937 37.683 6.93889C37.8431 7.45062 37.8456 7.44878 37.9723 7.9702C38.002 8.09254 37.9878 8.09401 38.0221 8.21684C38.0724 8.39676 38.0408 8.40203 38.0904 8.58318C38.1256 8.71171 38.1025 8.84747 38.1261 8.95902C38.2029 9.32174 38.1701 9.32462 38.1771 9.69457C38.1874 10.2374 38.2298 10.6192 38.2345 12.5762Z" fill="#6D3DF2" stroke="#6D3DF2" stroke-width="0.122644" mask="url(#path-1-inside-1_543_1090)"/>
<path d="M12.1953 6.28955C13.2619 6.09413 15.1198 6.30797 16.3594 7.854C16.4517 7.96905 16.6457 8.17188 16.9648 8.77881C17.0294 8.90163 17.0914 9.03198 17.1533 9.16357C17.215 9.29481 17.2772 9.4286 17.3438 9.55811C17.4769 9.81713 17.6284 10.0633 17.8281 10.2524C17.883 10.3044 17.8802 10.3037 17.9307 10.3618C17.9714 10.4087 18.0072 10.4305 18.0371 10.4409C18.0502 10.4455 18.0619 10.4464 18.0703 10.4478C18.1155 10.6641 18.1884 10.923 18.2539 11.1704C18.3216 11.4262 18.381 11.6694 18.3965 11.8452C18.4065 11.9591 18.4206 12.017 18.4316 12.0835C18.4427 12.1498 18.4521 12.2301 18.4521 12.3931C18.4522 12.6236 18.4477 12.7373 18.4404 12.812C18.4332 12.8867 18.4233 12.9214 18.4092 12.9995C18.381 13.1559 18.4215 13.1735 18.2891 13.6089C18.2621 13.6977 18.088 14.2689 17.8242 14.6558C17.7624 14.7464 17.6711 14.8951 17.5566 15.0425L17.4346 15.187C17.4322 15.1897 17.4127 15.2127 17.3838 15.2456C17.3537 15.2798 17.3123 15.3264 17.2666 15.3765C17.1748 15.477 17.0657 15.5907 16.9902 15.6528C16.9047 15.7232 16.8643 15.7618 16.8242 15.7993C16.7847 15.8363 16.7447 15.8733 16.6592 15.9409C16.6173 15.974 16.5949 15.9881 16.5723 16.0024C16.5485 16.0175 16.524 16.0331 16.4795 16.0688C16.3714 16.1556 16.1822 16.2803 16.1611 16.2925C16.1175 16.3178 16.0962 16.3458 16.085 16.3735C16.0797 16.3865 16.0771 16.3986 16.0752 16.4077C16.0736 16.4156 16.0714 16.4199 16.0703 16.4233C16.0632 16.4309 16.0581 16.4383 16.0537 16.4448C16.0477 16.4539 16.0445 16.4584 16.0391 16.4653C16.0297 16.4772 16.0128 16.4944 15.9639 16.522C15.0583 17.0318 14.2902 17.3165 13.3398 17.5483L12.9209 17.645C12.1994 17.7907 11.5814 17.8624 11.0996 17.9048C10.8586 17.926 10.6514 17.9402 10.4824 17.9526C10.3144 17.965 10.1825 17.9753 10.0928 17.9907V17.9917C10.0841 17.9924 10.0768 17.9947 10.0713 17.9976C10.0648 18.001 10.0591 18.0057 10.0557 18.0083C10.0519 18.0111 10.0492 18.0114 10.0479 18.0122C10.0222 18.0107 10.0112 18.0057 9.99805 17.9995C9.9801 17.991 9.95973 17.9823 9.91992 17.9819C9.02647 17.9746 9.02858 18.0232 7.7168 17.9263C6.8721 17.8639 6.09904 17.7268 5.9668 17.6958C5.96621 17.6943 5.96567 17.6923 5.96484 17.6899L5.94629 17.6558C5.93803 17.6471 5.92581 17.6412 5.91602 17.6372C5.90507 17.6328 5.89159 17.6279 5.87598 17.6235C5.84425 17.6146 5.80077 17.6054 5.74902 17.5942C5.64429 17.5716 5.5043 17.5435 5.33496 17.5063C4.99777 17.4323 4.55508 17.3221 4.10449 17.1509C4.09648 17.1478 4.09012 17.146 4.08105 17.1431C4.07185 17.1401 4.05845 17.1362 4.03613 17.1284C3.9908 17.1126 3.90688 17.0821 3.74023 17.019C3.08435 16.7708 2.42251 16.3831 2.2832 16.2788C2.20979 16.2239 2.13434 16.1757 2.05469 16.1216C1.97445 16.0671 1.88782 16.0054 1.79004 15.9204C1.74782 15.8837 1.70957 15.8571 1.67188 15.8296C1.63411 15.802 1.59593 15.7728 1.55078 15.731C1.08857 15.303 0.974043 15.129 0.935547 15.0708C0.900837 15.0184 0.877228 14.995 0.852539 14.9673C0.828531 14.9403 0.800255 14.9061 0.753906 14.8267C0.714449 14.7591 0.689814 14.7275 0.666992 14.6968C0.645206 14.6675 0.623911 14.638 0.588867 14.5728C-0.0348876 13.4109 0.0261676 12.6061 0.0380859 12.2104C0.0438916 12.0178 0.0580833 12.0256 0.0878906 11.8472C0.0995443 11.7773 0.100284 11.7402 0.103516 11.7026C0.1067 11.6657 0.113289 11.6238 0.135742 11.5405C0.147934 11.4951 0.150978 11.4712 0.15332 11.4478C0.155516 11.4257 0.156481 11.4041 0.166016 11.3618C0.176284 11.3163 0.18446 11.2951 0.192383 11.2729C0.200888 11.2491 0.209617 11.2248 0.21875 11.1753C0.226348 11.134 0.268473 10.9807 0.311523 10.8286C0.353921 10.6789 0.397474 10.5297 0.40332 10.5015C0.415876 10.4411 0.425494 10.4121 0.435547 10.3823C0.446094 10.3511 0.456234 10.319 0.466797 10.2544C0.476716 10.1939 0.486502 10.1655 0.496094 10.1362C0.506277 10.1052 0.516533 10.0732 0.526367 10.0083C0.536924 9.93853 0.548408 9.89567 0.558594 9.86182C0.568696 9.82824 0.578661 9.79944 0.583984 9.76221C0.612473 9.56332 0.809776 8.61179 1.02148 7.99463C1.05901 7.88534 1.16722 7.61208 1.27148 7.35693C1.32348 7.2297 1.37419 7.10714 1.41504 7.01221C1.4355 6.96465 1.45367 6.92375 1.46777 6.89307C1.48229 6.86149 1.49196 6.84272 1.49609 6.83643C1.50231 6.82701 1.53732 6.77 1.56738 6.72021C1.56987 6.72322 1.57393 6.72576 1.57715 6.72998C1.58737 6.74338 1.60466 6.76778 1.63281 6.77686C1.64023 6.77922 1.64698 6.77807 1.64844 6.77783C1.65078 6.77742 1.65309 6.77724 1.6543 6.77686C1.65675 6.77605 1.65912 6.77479 1.66113 6.77393C1.66543 6.77209 1.6713 6.76908 1.67773 6.76611C1.69104 6.75998 1.71014 6.75222 1.73438 6.74268C1.78288 6.72357 1.85381 6.69958 1.94531 6.68408C2.12808 6.65319 2.39517 6.65298 2.73438 6.78174C2.80377 6.80806 3.13475 6.93355 3.50293 7.34033C4.0242 7.91624 4.46383 8.8908 4.68652 9.57861C5.00729 10.598 5.10106 10.9387 5.31543 12.2104C5.33349 12.3176 5.34406 12.4049 5.35156 12.4683C5.3553 12.4998 5.35851 12.5269 5.36133 12.5464C5.36272 12.556 5.36468 12.5647 5.36621 12.5718C5.36756 12.5779 5.36926 12.5865 5.37305 12.5933C5.38412 12.6129 5.4 12.6283 5.41211 12.6401C5.41674 12.6447 5.42012 12.65 5.42383 12.6538C5.28993 12.7509 5.17346 12.8737 5.14062 13.0435C5.10554 13.2252 5.16714 13.4506 5.38379 13.7388C5.50891 13.9052 5.70825 14.0452 5.87695 14.1538C5.96259 14.209 6.03893 14.2552 6.09766 14.2944C6.12668 14.3138 6.15009 14.3308 6.16699 14.3452C6.18435 14.36 6.19085 14.369 6.19238 14.3726C6.19746 14.3868 6.2014 14.4112 6.20215 14.4429C6.20286 14.4742 6.2005 14.5115 6.19531 14.5493C6.18479 14.6258 6.16232 14.7027 6.12988 14.7515C6.0184 14.919 5.7701 15.0692 5.49316 15.106C5.21802 15.1424 4.91928 15.0664 4.7041 14.7876C4.64241 14.7076 4.58349 14.625 4.5166 14.5767C4.48198 14.5517 4.44314 14.5347 4.39941 14.5317C4.35572 14.5288 4.30946 14.5393 4.25977 14.5659C4.20795 14.5937 4.17851 14.6385 4.16895 14.6919C4.15966 14.7439 4.16986 14.8036 4.19141 14.8638C4.2346 14.9842 4.32949 15.1189 4.44824 15.23C4.82704 15.5842 5.29334 15.5944 5.41211 15.5952C5.43179 15.7251 5.44866 15.8511 5.47363 15.9673C5.50029 16.0912 5.53655 16.207 5.59766 16.3091C5.72138 16.5156 5.9413 16.659 6.35938 16.7163C6.46377 16.7306 6.68165 16.7339 6.89941 16.6782C7.11676 16.6226 7.34102 16.5063 7.44922 16.2759C7.46942 16.2329 7.56836 16.0214 7.59766 15.7153C7.59899 15.7014 7.59896 15.687 7.59863 15.6763C7.59829 15.6647 7.59824 15.656 7.59961 15.6479C7.60004 15.6454 7.60126 15.6415 7.60547 15.6333C7.60648 15.6313 7.60612 15.6282 7.60742 15.6255C7.7371 15.6202 8.19915 15.6182 8.65723 15.1772C8.782 15.0571 8.85441 14.9551 8.8877 14.8696C8.9212 14.7835 8.91571 14.7116 8.88184 14.6577C8.84868 14.6052 8.79184 14.5757 8.73438 14.564C8.67667 14.5523 8.61338 14.558 8.56348 14.5806C8.53941 14.5915 8.51576 14.612 8.49316 14.6353C8.47022 14.6589 8.4452 14.6885 8.41797 14.7202C8.36263 14.7846 8.29546 14.8607 8.20996 14.9302C8.04044 15.0679 7.79514 15.1801 7.41504 15.1079C7.34128 15.0939 7.20212 15.0456 7.0752 14.9595C6.94813 14.8731 6.83766 14.7524 6.81152 14.5972C6.79126 14.476 6.80375 14.4066 6.82031 14.3677C6.83605 14.3307 6.85661 14.3181 6.86523 14.313C7.01549 14.223 7.62847 13.9692 7.86426 13.3228C7.94016 13.1146 7.88233 12.9481 7.80078 12.8306C7.73329 12.7334 7.6481 12.6683 7.61035 12.6401C7.66244 12.4998 7.68264 12.3943 7.7041 12.2603C7.72655 12.12 7.75285 11.9477 7.82227 11.6685C7.93505 11.2146 8.1741 10.147 8.77637 8.96924C9.30413 7.9374 10.286 6.63954 12.1953 6.28955Z" fill="#6D3DF2" stroke="#6D3DF2" stroke-width="0.0613218"/>
<path d="M2.42969 0.0390625C2.46177 0.0500433 2.49036 0.0675553 2.49609 0.0712891C2.58357 0.128118 2.5854 0.12675 2.77832 0.238281C2.77958 0.239009 2.7807 0.23951 2.78516 0.243164C2.78979 0.246959 2.79681 0.253211 2.80859 0.261719C2.83191 0.27852 2.87478 0.307449 2.96191 0.360352C2.97887 0.370637 3.008 0.393316 3.03516 0.416016C3.06163 0.438153 3.08491 0.458496 3.08984 0.462891C3.12997 0.49839 3.16352 0.518577 3.19922 0.541992C3.23465 0.56524 3.27519 0.59397 3.33398 0.647461C3.37751 0.686999 3.41814 0.713663 3.45703 0.740234C3.49594 0.766814 3.53446 0.793053 3.57715 0.833008C3.67258 0.922342 3.66528 0.932868 3.89941 1.12402C4.3464 1.48889 4.56687 1.81735 4.70801 1.96875C4.73799 2.00082 4.79105 2.03799 4.86621 2.16699C4.89831 2.22213 4.9238 2.24522 4.9502 2.27246C4.9752 2.29828 5.00459 2.33179 5.0498 2.41211C5.07355 2.45429 5.09436 2.47659 5.11426 2.49902C5.13334 2.52055 5.1539 2.54464 5.17969 2.5918C5.21748 2.66082 5.2414 2.69285 5.2666 2.72363C5.29077 2.75315 5.31496 2.78105 5.35449 2.84473C5.3873 2.89757 5.43096 2.92573 5.48438 2.93164C5.53478 2.9371 5.59157 2.92254 5.65234 2.89941C5.71366 2.87607 5.78405 2.84119 5.86328 2.80469C5.94307 2.76793 6.03316 2.72834 6.13477 2.69141C6.39194 2.59794 6.52395 2.56966 6.55762 2.5625C6.56719 2.56045 6.57428 2.55788 6.58301 2.55469C6.5917 2.55151 6.60372 2.54684 6.625 2.54004C6.66832 2.52621 6.75013 2.50262 6.91602 2.46094C6.97609 2.44584 7.00634 2.44137 7.03711 2.43555C7.06873 2.42955 7.10044 2.42228 7.16211 2.4043C7.23486 2.38303 7.27249 2.38027 7.31055 2.37695C7.35076 2.37344 7.39251 2.36956 7.4707 2.34668C7.55702 2.3215 7.60099 2.32112 7.64648 2.32129C7.69526 2.32147 7.74672 2.32153 7.8418 2.2959C7.98702 2.25679 8.06128 2.25531 8.13672 2.25586C8.2151 2.25644 8.29651 2.25952 8.45117 2.22656C8.55762 2.20386 8.62899 2.18711 9.8584 2.20312C9.97993 2.20469 10.0392 2.21709 10.0986 2.22949C10.16 2.2423 10.2226 2.25524 10.3486 2.25879C10.4547 2.26178 10.5057 2.26396 10.5498 2.26953C10.5935 2.27505 10.6313 2.28443 10.7109 2.30469C10.7484 2.31412 10.8157 2.3185 10.875 2.32227C10.9055 2.3242 10.9349 2.32616 10.959 2.32812C10.9843 2.3302 11.0012 2.33207 11.0078 2.33398C11.0688 2.35154 11.1011 2.36216 11.1338 2.36914C11.1667 2.37615 11.2005 2.37966 11.2646 2.38672C11.3091 2.3916 11.3279 2.40032 11.3477 2.40918C11.3703 2.41932 11.395 2.43104 11.4463 2.44043C11.4578 2.44254 11.4693 2.44343 11.4795 2.44434C11.4902 2.44528 11.4996 2.44601 11.5088 2.44727C11.515 2.44814 11.5314 2.45204 11.5547 2.45801C11.5772 2.4638 11.6049 2.47108 11.6318 2.47852C11.6854 2.49332 11.7371 2.50884 11.7471 2.51172C11.7669 2.51741 11.7867 2.52429 11.8076 2.53223C11.8281 2.54 11.8503 2.54832 11.873 2.55469C11.9699 2.58161 11.9669 2.57475 12.0566 2.6084C12.1035 2.626 12.1279 2.63291 12.1514 2.63965C12.174 2.64614 12.1967 2.65291 12.2412 2.66992C12.2877 2.68763 12.3119 2.69449 12.335 2.70117C12.357 2.70756 12.3793 2.71444 12.4229 2.7334C12.5182 2.77495 12.5676 2.79262 12.6152 2.81055C12.6622 2.82826 12.7089 2.84694 12.7998 2.89258C12.8083 2.89686 12.8488 2.91716 12.8975 2.92773C12.933 2.93545 12.9784 2.93909 13.0195 2.92285L13.0586 2.89941C13.0631 2.89558 13.0664 2.89184 13.0693 2.8877C13.0711 2.88512 13.0746 2.87918 13.0781 2.87402C13.0869 2.86121 13.1046 2.83683 13.1416 2.78906C13.1729 2.74866 13.2295 2.66272 13.2803 2.58496C13.3059 2.54574 13.3303 2.50785 13.3496 2.47852L13.3867 2.42383C13.391 2.41869 13.3903 2.42107 13.4434 2.35938C13.4771 2.32021 13.5006 2.28347 13.5264 2.24609C13.5522 2.20859 13.5815 2.16785 13.6289 2.11719C13.6976 2.04379 13.7258 2.00096 13.7539 1.95996C13.7809 1.92058 13.8082 1.88188 13.876 1.81348C14.2208 1.46538 14.4356 1.24946 14.5723 1.11523C14.71 0.980005 14.7667 0.930258 14.7969 0.911133C14.8534 0.875365 14.8824 0.855734 14.9102 0.833984C14.9377 0.812378 14.9637 0.788302 15.0127 0.743164C15.0679 0.692321 15.0986 0.672098 15.1299 0.652344C15.1627 0.631636 15.1976 0.61073 15.2588 0.55957C15.3773 0.460533 15.5538 0.355367 15.6924 0.260742C15.6969 0.257675 15.7008 0.255405 15.709 0.250977C15.7171 0.246553 15.7286 0.239849 15.748 0.228516C15.7874 0.205596 15.8586 0.162083 15.998 0.0722656C16.0079 0.065949 16.058 0.035637 16.1094 0.078125C16.1145 0.082375 16.1161 0.0842799 16.1182 0.0878906C16.1212 0.0933002 16.1252 0.102706 16.1318 0.123047C16.1383 0.142979 16.1463 0.171137 16.1592 0.212891C16.1719 0.254424 16.1896 0.30871 16.2129 0.380859C16.371 0.871306 16.3847 0.864319 16.5078 1.36328C16.6003 1.73802 16.608 1.73251 16.6191 1.84961C16.6268 1.93065 16.64 1.97061 16.6523 2.00879C16.6639 2.04455 16.675 2.0801 16.6797 2.15527C16.6852 2.24262 16.6996 2.28531 16.7129 2.32422C16.7252 2.36033 16.7362 2.39202 16.7393 2.46094C16.7433 2.55215 16.7457 2.59905 16.752 2.64551C16.7582 2.6917 16.7681 2.7377 16.7861 2.82617C16.8055 2.92112 16.8024 3.00533 16.8018 3.11816C16.8011 3.23062 16.8036 3.36791 16.834 3.56445C16.8634 3.75484 16.8584 3.84921 16.8447 3.97754C16.8308 4.1079 16.8074 4.27371 16.8008 4.60352C16.799 4.694 16.7872 4.73701 16.7744 4.78027C16.7609 4.82614 16.7464 4.87416 16.7412 4.9707C16.7363 5.06164 16.7249 5.10498 16.7129 5.14844C16.7003 5.19401 16.6864 5.24139 16.6777 5.33691C16.6723 5.39654 16.6626 5.42353 16.6523 5.45117C16.641 5.48156 16.629 5.51418 16.6201 5.58008C16.6138 5.62699 16.6005 5.675 16.5869 5.72656C16.5735 5.77735 16.5591 5.83133 16.5527 5.8877C16.5397 6.0028 16.5586 6.12679 16.666 6.26172C16.8661 6.51324 17.2092 7.1538 17.3574 7.62305C17.4972 8.06579 17.5122 8.05859 17.6738 8.66211C17.6907 8.7249 17.7141 8.79843 17.7354 8.87012C17.757 8.94316 17.7766 9.01704 17.7852 9.08691C17.7863 9.09602 17.7887 9.10272 17.791 9.11035C17.7933 9.11789 17.7962 9.1283 17.8008 9.14648C17.8102 9.18346 17.8253 9.25349 17.8506 9.39551C17.861 9.45401 17.8738 9.48302 17.8838 9.51172C17.8932 9.53871 17.9015 9.56949 17.9062 9.63672C17.912 9.71821 17.9256 9.75817 17.9385 9.79688C17.9505 9.83303 17.9622 9.86819 17.9678 9.94336C17.9738 10.025 17.9865 10.0654 17.999 10.1045C18.0107 10.141 18.0217 10.1767 18.0293 10.252C18.0302 10.261 18.0316 10.2663 18.0361 10.2871C18.0398 10.3039 18.0452 10.3322 18.0557 10.3818C18.0374 10.3751 18.0111 10.3599 17.9775 10.3213C17.9265 10.2624 17.9271 10.262 17.8701 10.208C17.6781 10.026 17.5305 9.78731 17.3984 9.53027C17.3325 9.40193 17.2708 9.2692 17.209 9.1377C17.1472 9.00624 17.0848 8.87517 17.0195 8.75098C16.6971 8.13781 16.4997 7.9307 16.4072 7.81543C15.1497 6.24716 13.2664 6.03131 12.1846 6.22949C10.2488 6.58434 9.2538 7.90106 8.72168 8.94141C8.11569 10.1265 7.87533 11.201 7.7627 11.6543C7.69263 11.9362 7.667 12.1106 7.64453 12.251C7.6235 12.3823 7.60333 12.482 7.55469 12.6143C7.16334 12.5144 6.85018 12.3812 6.11328 12.4668C5.80799 12.5022 5.66113 12.5735 5.47754 12.623C5.46955 12.6135 5.46318 12.6036 5.45605 12.5967C5.44282 12.5838 5.43284 12.5742 5.42676 12.5635C5.42756 12.565 5.42701 12.5642 5.42578 12.5586C5.42469 12.5536 5.42321 12.5463 5.42188 12.5371C5.41922 12.5187 5.41685 12.4937 5.41309 12.4619C5.40554 12.3982 5.39436 12.3092 5.37598 12.2002C5.16112 10.9255 5.06664 10.5823 4.74512 9.56055V9.55957C4.52135 8.86855 4.07763 7.88509 3.54785 7.2998C3.17099 6.88345 2.83068 6.75299 2.75586 6.72461C2.406 6.59189 2.12759 6.59133 1.93457 6.62402C1.83831 6.64036 1.76356 6.6652 1.71191 6.68555C1.6861 6.69572 1.66603 6.70463 1.65234 6.71094C1.64996 6.71204 1.64739 6.71202 1.64551 6.71289C1.64101 6.70902 1.63418 6.70411 1.62598 6.69336C1.6199 6.6854 1.6105 6.67427 1.59863 6.66406C1.69615 6.46555 1.69599 6.45801 1.82617 6.26074C1.9214 6.11647 1.90594 5.94631 1.86719 5.77832C1.84781 5.69434 1.82127 5.60736 1.79883 5.52344C1.77614 5.4386 1.75749 5.35544 1.75 5.27539C1.74471 5.2186 1.73099 5.16727 1.71875 5.125C1.70592 5.08074 1.69578 5.05045 1.69336 5.0293C1.68154 4.92381 1.70279 4.90848 1.65723 4.72461C1.64242 4.66482 1.6308 4.59329 1.62598 4.38086C1.62115 4.16796 1.62246 3.81542 1.63086 3.19531C1.63334 3.01396 1.6532 3.02773 1.67676 2.89355C1.69322 2.79985 1.68833 2.74255 1.6875 2.68555C1.6867 2.62995 1.69024 2.56983 1.72266 2.46387C1.75061 2.37231 1.75099 2.32282 1.75195 2.27441C1.75286 2.22908 1.75417 2.18386 1.78223 2.0957C1.80307 2.03016 1.81054 1.96515 1.81445 1.91211C1.81543 1.89882 1.8157 1.88568 1.81641 1.87402C1.8171 1.86261 1.81766 1.85224 1.81836 1.84277C1.81987 1.8226 1.82194 1.80924 1.82422 1.80176C1.85157 1.71201 1.86275 1.70928 1.87598 1.60645C1.88359 1.54695 1.89383 1.51942 1.9043 1.49121C1.9157 1.4605 1.92806 1.42772 1.9375 1.36133C1.946 1.30146 1.95632 1.27364 1.9668 1.24512C1.97805 1.21447 1.98952 1.18251 1.99902 1.11719C1.99992 1.11098 2.0053 1.08967 2.01562 1.05469C2.02559 1.02095 2.03933 0.976453 2.05566 0.924805C2.08836 0.821451 2.13131 0.68977 2.1748 0.55957C2.21834 0.429274 2.26301 0.300047 2.29785 0.202148C2.31523 0.153331 2.33032 0.112478 2.3418 0.0830078C2.34757 0.0681973 2.35183 0.0560048 2.35547 0.0478516C2.35693 0.0445729 2.35751 0.0417912 2.3584 0.0400391C2.37152 0.0279133 2.39565 0.0274452 2.42969 0.0390625Z" fill="#6D3DF2" stroke="#6D3DF2" stroke-width="0.0613218"/>
<path d="M12.9976 17.7944C13.0224 17.8196 13.0399 17.8378 13.0552 17.855C13.0839 17.8873 13.1023 17.9173 13.1294 17.9897C13.1351 18.005 13.1394 18.0133 13.1577 18.0562C13.1765 18.1 13.211 18.1809 13.2778 18.3442C13.4534 18.7733 13.554 19.4825 13.5083 19.9321C13.4955 20.0578 13.4152 20.8504 13.1245 21.4458C12.9972 21.7066 12.7937 22.1386 12.4077 22.5454L12.2876 22.6655C11.3982 23.4895 10.0595 23.5452 8.91357 23.394C8.34175 23.3186 7.81994 23.1918 7.43018 23.0854C7.23533 23.0323 7.0736 22.9839 6.95459 22.9497C6.89534 22.9327 6.84613 22.9197 6.80908 22.9106C6.79058 22.9061 6.77432 22.9021 6.76123 22.8999C6.74929 22.8979 6.73649 22.8965 6.72607 22.8979C6.69638 22.9021 6.67072 22.9189 6.64795 22.9399C6.62506 22.9612 6.60218 22.99 6.57861 23.022C6.53051 23.0873 6.47687 23.1697 6.40186 23.2603C6.25324 23.4395 6.02396 23.645 5.61768 23.7593C5.28193 23.8537 4.96283 23.7618 4.90674 23.7456H4.90576C4.88561 23.7398 4.86596 23.7328 4.84424 23.7251L4.77588 23.7046C4.75991 23.7013 4.74405 23.7031 4.73584 23.7046C4.71879 23.6395 4.7067 23.6014 4.68701 23.5659C4.66601 23.5281 4.63686 23.4915 4.59131 23.4253C4.56281 23.3838 4.52887 23.3184 4.50146 23.2563C4.48792 23.2257 4.47611 23.1961 4.46729 23.1714L4.45166 23.1177L4.43115 22.8159C4.43097 22.8118 4.4318 22.8004 4.43311 22.7827C4.43435 22.7659 4.43533 22.7456 4.43701 22.7251C4.43868 22.7048 4.4409 22.6843 4.44189 22.6675C4.44239 22.6592 4.44275 22.6515 4.44287 22.645C4.44297 22.6393 4.44279 22.6321 4.44189 22.6265C4.43594 22.589 4.42675 22.5659 4.40576 22.5474C4.39689 22.5396 4.38663 22.5325 4.37744 22.5269C4.37513 22.5254 4.37305 22.5235 4.37061 22.522C4.37404 22.5185 4.37859 22.515 4.38232 22.5103C4.39891 22.489 4.41372 22.4569 4.42725 22.394C4.51506 21.9858 4.7962 21.5487 4.8667 21.4243L4.86475 21.4233C4.86988 21.4172 4.87526 21.4125 4.87744 21.4067C4.88041 21.3989 4.88221 21.3905 4.8833 21.3853L4.88623 21.3735C4.89134 21.3695 4.8959 21.368 4.90283 21.3667C4.90726 21.3659 4.91193 21.3647 4.91846 21.3638C4.92431 21.3629 4.93143 21.3618 4.93896 21.3599C4.97234 21.3511 5.00824 21.329 5.0542 21.2681C5.16113 21.1263 5.34772 20.9949 5.37744 20.9741C5.85273 20.6418 6.28187 20.5424 6.69971 20.5112C6.90939 20.4956 7.1162 20.4971 7.32568 20.4956C7.53443 20.4941 7.74563 20.4893 7.9624 20.4604C9.41641 20.2669 9.89057 19.0812 9.96924 18.9077V18.9058C10.1403 18.4325 10.0983 18.1806 10.1099 18.0845C10.1105 18.079 10.1125 18.0724 10.1167 18.062C10.1182 18.0583 10.1188 18.0534 10.1206 18.0483C10.2063 18.035 10.3291 18.0248 10.4868 18.0132C10.6554 18.0007 10.8634 17.9866 11.105 17.9653C11.5846 17.9232 12.1992 17.8525 12.9165 17.7085C12.9492 17.7447 12.9755 17.7721 12.9976 17.7944Z" fill="#6D3DF2" stroke="#6D3DF2" stroke-width="0.0613218"/>
<path d="M12.3281 22.7446C12.3414 22.7532 12.3486 22.759 12.3535 22.7651C12.3537 22.7659 12.3542 22.7668 12.3545 22.7681C12.3554 22.7728 12.3565 22.7793 12.3574 22.7876C12.3593 22.804 12.3611 22.8249 12.3623 22.8462C12.3635 22.8674 12.3646 22.8889 12.3652 22.9058C12.3659 22.9213 12.3657 22.935 12.3662 22.9399C12.3695 22.9745 12.3909 23.1961 12.3867 23.3677C12.3862 23.3911 12.3819 23.4072 12.375 23.4185C12.3681 23.4297 12.3572 23.4392 12.3408 23.4478C12.3058 23.4661 12.2536 23.477 12.1768 23.4937C12.0551 23.5201 11.3558 23.6715 10.7529 24.1323C9.78812 24.8699 9.38006 25.7054 9.23926 26.4663C9.10022 27.2179 9.223 27.895 9.32422 28.3306C9.3222 28.3335 9.32023 28.3373 9.31738 28.3413C9.30973 28.3521 9.29836 28.3673 9.2832 28.3853C9.25288 28.4211 9.20542 28.4706 9.13477 28.5269C8.99328 28.6395 8.75672 28.7815 8.37305 28.9038C8.1683 28.9689 7.10428 29.192 6.05957 28.4556C5.81047 28.28 5.81942 28.2726 5.59668 28.061L5.46875 27.897C5.46454 27.8913 5.43939 27.8576 5.41309 27.8257C5.4001 27.8099 5.38621 27.794 5.37402 27.7817C5.36798 27.7757 5.36155 27.7697 5.35547 27.7651C5.35244 27.7629 5.34882 27.7603 5.34473 27.7583L5.32617 27.7534C5.30716 27.7541 5.29258 27.7637 5.2832 27.7729C5.27447 27.7815 5.26779 27.7928 5.2627 27.8003L5.26172 27.8013C5.22277 27.7044 5.11931 27.4436 5.0459 27.2222C4.54913 25.723 4.61395 24.2715 4.61426 24.228C4.61372 24.1464 4.60057 24.0994 4.58203 24.0688C4.57383 24.0554 4.56455 24.0465 4.55762 24.0396C4.57615 24.0181 4.58814 24.0054 4.59863 23.9917C4.61156 23.9749 4.62421 23.9582 4.65234 23.9263C4.70561 23.8658 4.72856 23.8278 4.7373 23.7983C4.74115 23.7853 4.74094 23.7746 4.74121 23.7661C4.74335 23.7657 4.74544 23.7664 4.74707 23.7661C4.75763 23.7642 4.76137 23.7647 4.76367 23.7651C4.78316 23.7692 4.80253 23.7753 4.82324 23.7827C4.84364 23.79 4.86689 23.7986 4.88965 23.8052C4.94746 23.8218 5.28059 23.9171 5.63379 23.8179C6.05452 23.6995 6.2944 23.487 6.44922 23.3003C6.52576 23.208 6.58247 23.1198 6.62793 23.0581C6.65104 23.0267 6.67104 23.002 6.68945 22.9849C6.70771 22.968 6.72231 22.9612 6.73438 22.9595C6.73439 22.9595 6.73562 22.9593 6.73828 22.9595C6.74145 22.9597 6.74652 22.9596 6.75195 22.9604C6.7628 22.9623 6.77719 22.9659 6.79492 22.9702C6.83059 22.9789 6.87838 22.9923 6.9375 23.0093C7.05589 23.0433 7.21866 23.0917 7.41406 23.145C7.80525 23.2518 8.33048 23.3786 8.90625 23.4546C10.0474 23.6051 11.3981 23.5537 12.3086 22.7271C12.3164 22.7332 12.322 22.7407 12.3281 22.7446Z" fill="#6D3DF2" stroke="#6D3DF2" stroke-width="0.0613218"/>
<path d="M4.52979 24.1006C4.5404 24.1181 4.5537 24.1527 4.5542 24.2285V24.2295C4.55417 24.2306 4.55328 24.2325 4.55322 24.2344C4.55312 24.2379 4.5534 24.243 4.55322 24.249C4.55285 24.2619 4.55268 24.2806 4.55225 24.3037C4.55137 24.35 4.55055 24.4161 4.55127 24.499C4.55272 24.6648 4.55971 24.8988 4.58252 25.1787C4.62817 25.7385 4.73663 26.4843 4.98779 27.2422C5.03385 27.3811 5.09183 27.5355 5.13818 27.6553C5.16125 27.7149 5.18116 27.7661 5.1958 27.8027C5.20315 27.8211 5.20924 27.8365 5.21338 27.8467C5.21539 27.8516 5.21716 27.8557 5.21826 27.8584L5.22021 27.8623C5.68957 29.0691 6.56292 29.8676 6.71729 30.0088C6.98866 30.257 7.27252 30.4464 7.5249 30.5996C7.77889 30.7538 7.99637 30.8688 8.14404 30.9707L8.16162 30.9453L8.14404 30.9717L8.1499 30.9746L8.17627 30.9844C8.17609 30.9905 8.17519 30.9963 8.17529 31.001L8.17334 31.0273C8.16886 31.0434 8.15814 31.063 8.14111 31.0967C8.12481 31.1289 8.10518 31.1709 8.08545 31.2266C8.04584 31.3385 8.00716 31.5054 8.00049 31.7695C7.99784 31.8755 8.00759 31.9314 8.02197 31.9648L8.02295 31.9668C3.4551 31.968 3.45364 31.9714 3.05322 31.9688C3.00295 31.9684 2.97148 31.9627 2.95166 31.9541C2.93398 31.9464 2.92486 31.9361 2.91943 31.9209C2.91319 31.9033 2.91112 31.8782 2.91162 31.8418C2.91187 31.824 2.91274 31.8042 2.91357 31.7822C2.91441 31.7603 2.91616 31.736 2.9165 31.71C2.9175 31.6334 2.92916 31.6003 2.94092 31.5762C2.95312 31.5512 2.97218 31.5241 2.98096 31.4727C2.98315 31.4596 2.98281 31.4467 2.98291 31.4365L2.98486 31.4092C2.99257 31.3637 3.05089 31.1797 3.15967 30.9785C3.26836 30.7775 3.42442 30.5654 3.62354 30.4551C3.66769 30.4306 3.68802 30.4134 3.70947 30.3965C3.72967 30.3806 3.75351 30.3629 3.80713 30.335C3.90647 30.2832 3.956 30.2599 4.00635 30.2422C4.05798 30.2241 4.11031 30.2113 4.21924 30.1787C4.22791 30.1762 4.2477 30.1734 4.27881 30.1709C4.30922 30.1685 4.34801 30.1665 4.39209 30.165C4.48009 30.1622 4.58887 30.1619 4.6958 30.1621C4.80271 30.1623 4.90785 30.1631 4.98779 30.165C5.0278 30.166 5.06195 30.1668 5.08643 30.168C5.09859 30.1685 5.10873 30.1694 5.11572 30.1699C5.11867 30.1702 5.1209 30.1707 5.12256 30.1709L5.12354 30.1719C5.12721 30.1738 5.13275 30.1757 5.13916 30.1787C5.15211 30.1848 5.17031 30.1931 5.19092 30.2002C5.23029 30.2137 5.2865 30.2265 5.33447 30.2109C5.38031 30.1958 5.39799 30.1473 5.40283 30.1094C5.40786 30.0698 5.40198 30.0235 5.3833 29.9932C5.37963 29.9873 5.37262 29.9793 5.36572 29.9717C5.35809 29.9632 5.34845 29.9519 5.33643 29.9395C5.31233 29.9145 5.27906 29.8819 5.24072 29.8438C5.16411 29.7675 5.06377 29.6695 4.9624 29.5693C4.86081 29.469 4.75796 29.3662 4.67529 29.2812C4.59196 29.1957 4.53206 29.1304 4.51318 29.1025C4.42047 28.9642 4.41895 28.9605 4.40674 28.9463C4.32824 28.8549 4.29719 28.8045 4.26807 28.7539C4.23798 28.7016 4.20844 28.6468 4.13525 28.5508C4.10056 28.5052 4.05463 28.423 4.00439 28.3213C3.95434 28.22 3.90072 28.1011 3.85107 27.9844C3.80155 27.868 3.75587 27.7538 3.72119 27.6611C3.68603 27.5672 3.66285 27.4973 3.65771 27.4697C3.64124 27.3809 3.64271 27.3795 3.61279 27.292C3.59447 27.2384 3.59521 27.2109 3.59521 27.1797C3.59521 27.1447 3.59368 27.1073 3.56885 27.04V27.0391C3.55274 26.9956 3.54326 26.9639 3.5376 26.9287C3.53187 26.893 3.52992 26.8523 3.52979 26.791C3.52952 26.6703 3.53677 26.465 3.53369 26.0674C3.53363 26.0603 3.53345 26.0186 3.53369 25.9775C3.53381 25.9571 3.53417 25.9368 3.53467 25.9209C3.53491 25.913 3.5353 25.9063 3.53564 25.9014C3.5358 25.8991 3.53555 25.8974 3.53564 25.8965C3.54124 25.8776 3.54912 25.8591 3.55811 25.8389C3.56691 25.819 3.57723 25.7964 3.58447 25.7734C3.59197 25.7494 3.59341 25.7244 3.59521 25.7041C3.59943 25.6569 3.60318 25.6357 3.60889 25.6162C3.61529 25.5943 3.6237 25.576 3.64014 25.5283C3.65478 25.4855 3.70316 25.2504 3.92236 24.8477C3.97666 24.7479 3.97108 24.7477 4.03857 24.6592C4.05004 24.6441 4.05758 24.6313 4.06396 24.6191C4.07044 24.6068 4.07461 24.5966 4.08252 24.583C4.09783 24.5567 4.12573 24.5182 4.19287 24.4453C4.26132 24.3711 4.28786 24.3263 4.31494 24.2852C4.34074 24.246 4.36784 24.2084 4.43799 24.1436C4.44924 24.1332 4.44848 24.1333 4.51416 24.082C4.51961 24.0874 4.52493 24.0926 4.52979 24.1006Z" fill="#6D3DF2" stroke="#6D3DF2" stroke-width="0.0613218"/>
<path d="M5.20801 19.6812C5.20924 19.6881 5.21278 19.6937 5.21289 19.6938C5.21375 19.6952 5.21419 19.6968 5.21484 19.6978C5.21643 19.7 5.21798 19.702 5.21973 19.7046C5.22326 19.7098 5.22776 19.7172 5.23145 19.7261C5.23865 19.7436 5.24459 19.7705 5.23535 19.8071C5.17381 20.0516 5.13843 20.1723 5.10352 20.2935C5.06846 20.4151 5.0338 20.5371 4.97461 20.7837C4.90038 21.093 4.89706 21.0917 4.81055 21.397C4.73984 21.5207 4.45674 21.965 4.36719 22.3813C4.35455 22.4401 4.34244 22.4623 4.33398 22.4731C4.32943 22.4789 4.32586 22.4824 4.31934 22.4888C4.31749 22.4906 4.31544 22.4925 4.31348 22.4946C4.2703 22.481 4.24422 22.4736 4.2168 22.4702C4.20132 22.4683 4.18515 22.4674 4.16699 22.4663C4.14879 22.4652 4.12725 22.4639 4.09863 22.4614C4.05394 22.4576 4.03646 22.4453 4.00586 22.4302C3.97233 22.4136 3.93136 22.3987 3.84961 22.3979C3.79168 22.3974 3.76683 22.3931 3.74902 22.3872C3.7399 22.3842 3.73169 22.3807 3.7207 22.3755C3.70965 22.3703 3.69574 22.3639 3.67773 22.3569C3.66232 22.351 3.63241 22.346 3.59863 22.3423C3.56323 22.3384 3.51929 22.3355 3.47461 22.3354C3.42997 22.3354 3.38287 22.338 3.3418 22.3452C3.302 22.3522 3.26248 22.3649 3.23633 22.3872C3.22489 22.397 3.21232 22.4116 3.2002 22.4282C3.1876 22.4455 3.17371 22.4671 3.1582 22.4907C3.12698 22.5384 3.08975 22.5965 3.04688 22.6577C2.96047 22.781 2.85363 22.9104 2.7334 22.979C2.69271 23.0022 2.66323 23.022 2.63574 23.0396C2.60829 23.0571 2.58304 23.0728 2.55078 23.0903C2.48617 23.1254 2.39129 23.1679 2.19238 23.2397C2.17878 23.2447 2.17113 23.2469 2.16016 23.2495C2.14936 23.2521 2.13458 23.2547 2.1084 23.2563C2.05499 23.2597 1.9586 23.2601 1.76465 23.2583C1.68573 23.2575 1.58838 23.2253 1.49316 23.1724C1.39826 23.1196 1.30812 23.0483 1.24414 22.9741C1.13372 22.8459 1.0966 22.7481 1.08398 22.6753C1.07762 22.6385 1.07784 22.6066 1.07812 22.5786C1.0784 22.5524 1.07969 22.524 1.07422 22.5005C1.07006 22.4826 1.06286 22.4673 1.05762 22.4546C1.05229 22.4417 1.04791 22.4301 1.04492 22.4165C1.03913 22.3899 1.03839 22.3498 1.05957 22.2739C1.08361 22.1878 1.08297 22.1206 1.08203 22.062C1.08109 22.0034 1.08035 21.9557 1.10059 21.9009C1.23876 21.5272 1.30211 21.2142 1.67676 20.8276C2.04962 20.443 2.08109 20.4991 2.28516 20.3423C2.33069 20.3074 2.40145 20.2752 2.46973 20.2485C2.50351 20.2353 2.53608 20.2243 2.56348 20.2144C2.59012 20.2047 2.6138 20.1956 2.62793 20.189C2.69036 20.1597 2.71924 20.1462 2.74902 20.1362C2.77886 20.1263 2.81085 20.1203 2.87891 20.1069C2.93982 20.095 2.97002 20.0803 2.99805 20.0698C3.02413 20.0601 3.05279 20.0516 3.11621 20.0493C3.20058 20.0462 3.24195 20.0276 3.28027 20.0112C3.31455 19.9966 3.34717 19.9837 3.41992 19.9839C3.49552 19.9841 3.55281 19.9869 3.60059 19.9897C3.64809 19.9926 3.68823 19.9956 3.72754 19.9956C3.80792 19.9956 3.88594 19.9827 4.03418 19.938C4.105 19.9167 4.17707 19.9198 4.25195 19.9233C4.32481 19.9268 4.40273 19.9315 4.47461 19.9058C4.52012 19.8895 4.5408 19.8821 4.56152 19.8774C4.58275 19.8727 4.60487 19.8699 4.65332 19.8638L4.68066 19.8569C4.69364 19.853 4.71159 19.8469 4.73242 19.8403C4.77411 19.8271 4.82896 19.8099 4.88477 19.7915C4.94059 19.7731 4.99752 19.7531 5.04395 19.7368C5.0893 19.7209 5.12748 19.7073 5.14258 19.6997C5.17616 19.6828 5.19024 19.6793 5.20801 19.6733C5.20804 19.6759 5.20755 19.6784 5.20801 19.6812Z" fill="#6D3DF2" stroke="#6D3DF2" stroke-width="0.0613218"/>
<path d="M6.12061 12.5278C6.8586 12.4422 7.15729 12.579 7.56299 12.6802C7.59515 12.7046 7.68184 12.7669 7.75049 12.8657C7.82354 12.971 7.87368 13.1171 7.80615 13.3022C7.63628 13.7676 7.2648 14.0203 7.02197 14.1577L6.83447 14.2603L6.67236 14.3511L6.49951 14.3794C6.45166 14.3651 6.39196 14.3571 6.34326 14.3501C6.31638 14.3463 6.29245 14.3418 6.27393 14.3374C6.26493 14.3352 6.25762 14.3337 6.25244 14.3315C6.24733 14.3294 6.24561 14.3276 6.24561 14.3276H6.24463C6.23395 14.3154 6.21793 14.3023 6.19971 14.2896C6.17882 14.2749 6.15267 14.2574 6.12256 14.2388C6.06173 14.2012 5.98463 14.1556 5.90186 14.1021C5.73613 13.9949 5.55111 13.8586 5.43311 13.7017C5.22138 13.42 5.17031 13.2126 5.20068 13.0552C5.23107 12.8985 5.34328 12.7815 5.48291 12.6851C5.68279 12.6325 5.81428 12.5634 6.12061 12.5278Z" fill="#432184" stroke="#6D3DF2" stroke-width="0.0613218"/>
<path d="M6.75879 14.3569C6.73965 14.4102 6.73126 14.4888 6.75098 14.6069C6.78093 14.7858 6.90629 14.9194 7.04004 15.0103C7.17399 15.1013 7.32127 15.1528 7.40332 15.1685C7.80352 15.2445 8.06724 15.1257 8.24902 14.978C8.3391 14.9048 8.40849 14.8247 8.46387 14.7603C8.49177 14.7278 8.51576 14.7002 8.53711 14.6782C8.55893 14.6558 8.57592 14.6421 8.58887 14.6362C8.62558 14.6197 8.67507 14.6151 8.72168 14.6245C8.7684 14.634 8.80841 14.6565 8.83008 14.6909C8.85105 14.7243 8.85854 14.7751 8.83008 14.8481C8.80125 14.9219 8.73566 15.0164 8.61426 15.1333C8.15408 15.5762 7.69383 15.5592 7.58789 15.5659C7.53027 15.5594 7.20955 15.5222 7 15.4146C6.78074 15.3017 6.67672 15.1917 6.60742 15.1255C6.59006 15.1089 6.57342 15.0939 6.55762 15.0825C6.54176 15.0711 6.5244 15.0613 6.50488 15.0581C6.46364 15.0514 6.42702 15.0736 6.38867 15.1099C6.35842 15.1386 6.17406 15.3133 5.9707 15.3999C5.8412 15.4549 5.77655 15.4774 5.71094 15.4917C5.64354 15.5064 5.57566 15.5123 5.43457 15.5347C5.36008 15.5334 4.87756 15.5473 4.49023 15.1851C4.37648 15.0787 4.28807 14.9522 4.24902 14.8433C4.22955 14.7889 4.22287 14.7412 4.22949 14.7036C4.23597 14.6673 4.25488 14.6389 4.28906 14.6206C4.33105 14.5982 4.36594 14.5913 4.39551 14.5933C4.42494 14.5953 4.45275 14.6065 4.48047 14.6265C4.53818 14.6681 4.5899 14.741 4.65527 14.8257C4.8862 15.1249 5.20835 15.2063 5.50098 15.1675C5.79178 15.1289 6.05846 14.9707 6.18164 14.7856C6.21967 14.7282 6.24133 14.6452 6.25293 14.5679L6.54199 14.4478L6.75879 14.3569Z" stroke="#6D3DF2" stroke-width="0.0613218"/>
<path d="M5.33057 27.8247C5.3408 27.835 5.354 27.8493 5.3667 27.8647C5.39138 27.8947 5.41449 27.9265 5.41943 27.9331C5.52907 28.0806 5.53949 28.092 5.5542 28.106C5.77642 28.317 5.77083 28.327 6.02393 28.5054C7.09061 29.2575 8.17763 29.0307 8.39209 28.9624C8.78221 28.838 9.02536 28.6925 9.17334 28.5747C9.24723 28.5159 9.29772 28.4641 9.33057 28.4253C9.33744 28.4172 9.34275 28.4088 9.34814 28.4019C9.67356 29.3232 10.1901 29.8597 10.3804 30.0259C10.4459 30.0831 10.4944 30.1097 10.5229 30.1284C10.5373 30.1378 10.545 30.1439 10.5493 30.1499C10.553 30.1552 10.5561 30.1634 10.5571 30.1782L10.5552 30.1958C10.5521 30.1965 10.5457 30.1967 10.5347 30.1948C10.5236 30.193 10.5098 30.1892 10.4937 30.1841C10.4311 30.1641 10.3326 30.1215 10.229 30.104C9.50435 29.9821 9.04608 30.1215 8.75146 30.3179C8.45943 30.5125 8.32954 30.7639 8.26416 30.8481C8.23158 30.89 8.20767 30.9037 8.19385 30.9087C8.18688 30.9112 8.18109 30.9121 8.17529 30.9126C8.1736 30.9128 8.17033 30.9123 8.16748 30.9126C8.01834 30.8114 7.79866 30.6945 7.55615 30.5474C7.30547 30.3952 7.02552 30.2078 6.7583 29.9634C6.60617 29.8242 5.7538 29.0441 5.2876 27.8657C5.28904 27.8645 5.29121 27.864 5.29248 27.8628C5.30123 27.8542 5.30789 27.843 5.31299 27.8354C5.31803 27.828 5.32149 27.8224 5.32471 27.8188C5.32645 27.8204 5.32833 27.8225 5.33057 27.8247Z" fill="#6D3DF2" stroke="#6D3DF2" stroke-width="0.0613218"/>
<path d="M5.97949 17.7607C6.17326 17.8014 6.9113 17.9281 7.71191 17.9873C9.02645 18.0844 9.02932 18.0357 9.91895 18.043C9.94696 18.0432 9.95863 18.0485 9.97168 18.0547C9.98878 18.0628 10.0083 18.0724 10.0479 18.0742L10.0498 18.0732C10.0496 18.0746 10.049 18.0758 10.0488 18.0771C10.0357 18.1858 10.0778 18.4113 9.91992 18.8604C9.91686 18.8595 9.91299 18.8596 9.90918 18.8584C9.89672 18.8545 9.8783 18.848 9.8584 18.8486C9.8513 18.8489 9.84389 18.8509 9.83887 18.8525C9.83313 18.8544 9.82673 18.8576 9.82031 18.8604C9.80727 18.8659 9.79162 18.8727 9.77734 18.8799L9.7168 18.9121C9.56332 18.9966 9.20075 19.1104 8.78906 19.2061C8.37834 19.3014 7.92353 19.3772 7.58887 19.3887C6.46211 19.4274 5.75183 19.1254 5.59473 19.0557C5.6356 18.9042 5.72708 18.6257 5.81055 18.3672C5.85465 18.2306 5.89648 18.0995 5.92773 17.9971C5.94333 17.946 5.95656 17.9018 5.96582 17.8672C5.97472 17.834 5.98072 17.8056 5.98145 17.79C5.98188 17.7797 5.98024 17.7697 5.97949 17.7607Z" fill="#6D3DF2" stroke="#6D3DF2" stroke-width="0.0613218"/>
<path d="M9.86084 18.9097C9.86844 18.9095 9.87686 18.912 9.89111 18.9165C9.89287 18.9171 9.89499 18.9169 9.89697 18.9175C9.78295 19.1742 9.29872 20.2209 7.95459 20.3999C7.74173 20.4282 7.53325 20.4326 7.32471 20.4341C7.11682 20.4356 6.90784 20.4339 6.6958 20.4497C6.2697 20.4814 5.8287 20.5842 5.34229 20.9243C5.31289 20.9449 5.11882 21.0807 5.00537 21.231C4.96423 21.2855 4.93888 21.2972 4.92334 21.3013C4.91896 21.3024 4.91464 21.3035 4.90967 21.3042C4.90731 21.3045 4.90399 21.3038 4.90088 21.3042C4.95829 21.1027 4.97032 21.0665 5.03467 20.7983C5.09362 20.5527 5.12774 20.431 5.1626 20.3101C5.19754 20.1888 5.23361 20.0673 5.29541 19.8218C5.30817 19.7711 5.30028 19.731 5.28857 19.7026C5.28282 19.6887 5.27608 19.6779 5.271 19.6704L5.27002 19.6685C5.2706 19.6674 5.27208 19.6661 5.27295 19.6646C5.27514 19.6607 5.27919 19.6547 5.28174 19.6479C5.28294 19.6447 5.28197 19.6404 5.28271 19.6362C5.28713 19.631 5.29126 19.6268 5.29346 19.6235C5.29785 19.617 5.29991 19.6149 5.30127 19.6138C5.326 19.5939 5.33954 19.5856 5.35303 19.5767C5.36717 19.5672 5.38108 19.5572 5.40576 19.5356C5.40948 19.534 5.41409 19.533 5.41846 19.5298C5.4311 19.5204 5.44446 19.5037 5.45947 19.4761C5.48796 19.4235 5.52634 19.3203 5.57861 19.1147C5.75347 19.1918 6.46802 19.4891 7.59033 19.4507C7.93068 19.439 8.38978 19.3609 8.80225 19.2651C9.21374 19.1696 9.58473 19.0544 9.74658 18.9653C9.75186 18.9624 9.77803 18.9487 9.80518 18.9351C9.81899 18.9281 9.83292 18.9213 9.84424 18.9165C9.84986 18.9141 9.8544 18.9118 9.85791 18.9106C9.86189 18.9093 9.86248 18.9096 9.86084 18.9097ZM5.3999 19.5396H5.39697C5.39599 19.5398 5.39929 19.5391 5.40088 19.5386C5.40193 19.5382 5.40268 19.5371 5.40381 19.5366C5.40203 19.5378 5.40085 19.5392 5.3999 19.5396Z" fill="#6D3DF2" stroke="#6D3DF2" stroke-width="0.0613218"/>
<path d="M6.52246 15.1313C6.5345 15.14 6.54815 15.1529 6.56543 15.1694C6.63479 15.2357 6.74405 15.3511 6.97168 15.4683C7.16307 15.5667 7.43825 15.607 7.54492 15.6206C7.54288 15.6257 7.54012 15.631 7.53906 15.6372C7.53653 15.652 7.53676 15.6666 7.53711 15.6782C7.53749 15.6908 7.53798 15.7004 7.53711 15.7095C7.50881 16.0051 7.41264 16.2089 7.39355 16.2495C7.29652 16.4562 7.09325 16.5661 6.88379 16.6196C6.6747 16.673 6.46568 16.6691 6.36816 16.6558C5.96118 16.6 5.76148 16.4624 5.65039 16.2769C5.59428 16.183 5.55915 16.0751 5.5332 15.9546C5.50903 15.8421 5.49319 15.7207 5.47363 15.5913C5.59146 15.5732 5.65942 15.5653 5.72363 15.5513C5.79508 15.5357 5.86381 15.5119 5.99414 15.4565C6.20806 15.3656 6.39928 15.1846 6.43066 15.1548C6.46698 15.1204 6.48441 15.1169 6.49512 15.1187C6.50163 15.1197 6.51047 15.1227 6.52246 15.1313Z" fill="#6D3DF2" stroke="#6D3DF2" stroke-width="0.0613218"/>
<path d="M24.0684 25.417C24.0703 25.4188 24.0733 25.4237 24.0723 25.4355C24.0711 25.448 24.0652 25.4668 24.0498 25.4902C24.0513 25.4881 24.0523 25.4882 24.0459 25.4912C24.0435 25.4923 24.0383 25.4949 24.0342 25.4971C24.0297 25.4994 24.0238 25.5028 24.0186 25.5078C23.9915 25.5339 23.9847 25.569 23.9834 25.5947C23.9821 25.621 23.9863 25.6433 23.9873 25.6484C23.9884 25.6535 23.9914 25.6577 23.9932 25.6621C23.9883 25.6618 23.9834 25.6624 23.9785 25.6621C23.9636 25.6611 23.9485 25.6599 23.9375 25.6592L23.9355 25.6582C23.9334 25.654 23.9317 25.6506 23.9307 25.6475C23.9288 25.6416 23.9281 25.6353 23.9277 25.626C23.9271 25.6088 23.9287 25.5712 23.9248 25.5137C23.9242 25.5053 23.9218 25.4978 23.9199 25.4922C23.9189 25.4892 23.9179 25.4858 23.917 25.4834L23.9131 25.4756L23.916 25.4766C23.9189 25.4759 23.9272 25.474 23.9326 25.4727C23.939 25.4711 23.948 25.4688 23.9561 25.4639C23.9671 25.4571 23.9747 25.447 23.9785 25.4424C23.9807 25.4397 23.9821 25.4378 23.9834 25.4365L23.9854 25.4346C24.0094 25.4204 24.0294 25.4145 24.0439 25.4131C24.0586 25.4117 24.0659 25.4148 24.0684 25.417Z" fill="#6D3DF2" stroke="#6D3DF2" stroke-width="0.0613218"/>
<path d="M8.60986 30.7871C8.61204 30.8336 8.60381 30.8535 8.59033 30.8721C8.58249 30.8828 8.57258 30.8943 8.55811 30.9092C8.54922 30.9183 8.53895 30.9284 8.52783 30.9404C8.50412 30.9202 8.48029 30.9067 8.46533 30.8994C8.46628 30.8986 8.46714 30.8974 8.46826 30.8965C8.47734 30.8888 8.48206 30.8876 8.48779 30.8857C8.49812 30.8824 8.51126 30.8781 8.52881 30.8633C8.54438 30.8501 8.55717 30.8344 8.56787 30.8213C8.57907 30.8076 8.58759 30.7956 8.59814 30.7861C8.60226 30.7824 8.6064 30.7781 8.60986 30.7744C8.60957 30.7783 8.60966 30.7829 8.60986 30.7871Z" fill="#6D3DF2" stroke="#6D3DF2" stroke-width="0.0613218"/>
<path d="M6.19363 14.3494L6.5309 14.4414L6.89883 14.2881L9.07576 14.5027L8.86113 15.6678L4.04736 15.6985V14.3494H6.19363Z" fill="#6D3DF2" stroke="#6D3DF2" stroke-width="0.0613218"/>
<path d="M55.1064 5.04329C56.864 4.93817 61.062 4.94491 62.4158 6.01038C63.5145 6.87506 63.715 7.75955 63.9164 9.02751L64.7604 8.98317C64.8957 6.55208 66.5635 5.21486 68.919 5.10357C72.1196 4.95245 74.5929 5.29358 74.8781 9.01309C75.8293 9.03713 76.7095 9.18868 77.5573 9.63121C77.9138 9.43036 78.2924 9.27135 78.6854 9.15747C80.5165 8.62954 82.27 8.94772 83.9133 9.84405C85.0688 9.11255 85.8506 8.87381 87.1994 8.70166C88.9153 8.48258 91.9858 8.68157 93.3666 9.76332C95.3111 8.77005 96.8155 8.5232 98.9679 8.65932C101.083 8.79308 103.032 9.39807 104.475 11.0372C104.668 10.3042 104.959 9.60036 105.339 8.94456C107.614 5.05011 111.962 4.80857 115.968 5.0951C118.981 5.31066 120.214 5.91278 120.954 8.88306C121.141 8.84331 121.329 8.80879 121.518 8.77952C124.105 8.38621 126.61 8.63586 128.772 10.2229C129.533 9.6536 130.393 9.22908 131.307 8.97047C133.296 8.41068 136.188 8.47749 137.995 9.50456C139.847 8.65308 142.023 8.61462 143.765 9.76174C145.792 8.44354 149.402 8.25131 150.987 10.4381C152.088 12.1158 152.112 14.4783 152.058 16.3978C151.946 20.3879 151.728 25.2942 148.143 27.7849C145.46 29.3999 141.012 29.4489 138.332 27.6675C137.209 26.921 136.758 25.9608 136.538 24.6714C134.702 25.2166 132.657 25.1694 130.921 24.3181C130.514 24.5351 130.085 24.7103 129.642 24.8411C128.502 25.1675 126.958 25.1282 125.909 24.5377C125.845 24.5686 125.779 24.5974 125.713 24.6238C123.829 25.3942 121.475 25.2269 119.613 24.4506C117.635 25.4458 116.193 25.7171 113.964 25.7455C111.773 25.7733 108.373 25.3101 106.754 23.7018C104.753 25.1098 102.912 25.4002 100.604 24.4732C100.335 24.5771 100.06 24.666 99.7808 24.7395C97.7611 25.2893 95.2627 24.9168 93.4466 23.8843C90.4367 25.3716 86.0385 25.571 83.2092 23.582C80.14 25.7902 75.2969 25.5713 72.2197 23.4926C70.0202 25.3349 64.9581 25.6107 62.4219 24.4547C60.7627 25.2816 59.627 25.5639 57.8217 25.7016C50.3153 26.2833 46.1222 23.5729 46.2372 15.6118C46.3284 9.29452 48.1542 5.49644 55.1064 5.04329ZM62.3367 23.2383C64.7929 24.333 67.5858 24.3949 70.0881 23.41C70.9759 23.0617 71.6093 22.672 72.3708 22.0962C74.0324 23.6237 76.0829 24.1449 78.2929 24.0528C80.0967 23.993 81.8319 23.3471 83.2361 22.213C86.2965 24.4897 90.2619 24.5575 93.5254 22.6529C95.7239 23.9994 98.1342 24.4541 100.555 23.3404C102.925 24.5609 104.852 23.9107 106.77 22.2861C109.442 24.5149 111.874 24.7714 115.268 24.555C116.732 24.4617 118.307 23.9703 119.513 23.1294C121.444 24.3174 123.868 24.4106 125.887 23.3705C127.719 24.5002 129.07 24.0706 130.89 23.2232C132.695 24.0328 133.983 24.2142 136.012 23.7666C136.452 23.6695 137.253 23.3178 137.652 23.2884C137.747 23.6921 137.507 24.3123 137.548 24.6626C137.834 27.0312 140.659 27.9508 142.695 28.0407C145.039 28.1441 147.183 27.7528 148.815 25.9192C150.836 23.2507 150.999 20.0808 151.099 16.84C151.217 12.9976 151.173 9.05679 146.05 9.78923C145.084 9.92743 144.501 10.3278 143.794 10.9831C142.199 9.47048 139.821 9.43646 138.018 10.6094C135.786 9.01819 131.711 9.2232 129.554 10.8523C129.295 11.0479 129.052 11.275 128.779 11.4752C126.304 9.25958 123.191 9.11384 120.138 10.035C119.875 6.35646 118.283 6.15554 115.093 6.00614C110.992 5.81419 106.847 6.44021 105.496 11.0316C105.382 11.4326 105.122 13.1266 104.974 13.3047L104.878 13.3095C104.4 12.7811 104.085 12.1351 103.632 11.6033C101.417 9.00118 95.9539 8.90065 93.416 10.9415C90.9163 9.00276 86.2818 8.99221 83.8526 11.0407C82.1278 9.50887 79.4651 9.38128 77.6086 10.7577C76.2813 9.87462 75.6107 9.81886 73.9814 9.95169C74.0132 6.82512 72.9264 5.96438 69.8398 6.00306C67.2594 6.03535 65.6694 6.56772 65.7251 9.48691C65.7272 9.59541 65.73 9.70383 65.7333 9.81226C64.5814 9.81413 64.1191 9.83156 63.0022 10.0636C63.0022 9.0306 62.9505 7.81746 62.1232 7.01491C60.7419 5.6749 57.456 6.08077 55.6341 5.99287C55.499 5.98634 54.7053 6.01619 54.5908 6.03678C52.4218 6.23914 50.5735 6.68002 49.0743 8.47476C47.0871 10.8538 47.1058 14.6979 47.3701 17.619C47.5397 19.4941 48.1587 21.652 49.6637 22.894C51.8363 24.6871 55.4523 24.794 58.148 24.5458C59.5814 24.4137 61.1071 23.9948 62.3367 23.2383Z" fill="#6D3DF2"/>
<path d="M69.4581 7.74898C71.0099 7.62011 72.2485 7.85583 72.1057 9.70948C71.8389 12.5905 71.8646 15.5146 71.6438 18.3874C71.3307 22.4616 66.3235 23.0126 63.3202 21.6729C59.5251 19.7736 59.4882 13.0815 63.9229 11.9394C65.4302 11.5512 66.7935 11.6522 68.2083 12.2674C68.1377 11.7497 68.0588 11.2259 67.9961 10.7076C67.8174 9.22964 67.6444 8.02848 69.4581 7.74898ZM66.8392 19.0735C69.0851 18.3174 68.8059 14.3408 65.8071 14.4894C63.5043 15.1674 63.6244 19.473 66.8392 19.0735Z" fill="#6D3DF2"/>
<path d="M55.8062 7.76152C56.7805 7.74221 57.6914 7.78678 58.6552 7.81936C60.2981 7.8749 61.7959 8.27035 61.0144 10.3298C60.0216 11.1562 59.1771 10.9209 57.9685 10.8543C55.147 10.6988 53.7235 10.4473 53.5811 13.7546C54.4662 13.7433 58.2289 13.3985 58.6632 14.0939C60.74 17.4185 55.3761 16.7539 53.6605 16.7939C53.7218 19.7359 54.9152 19.8578 57.5753 19.3956C58.4229 19.2094 59.5892 18.8165 60.3341 19.4085C60.9566 19.9032 61.1689 21.1196 60.6026 21.7167C59.7783 22.5857 58.3116 22.6956 57.1808 22.8247C55.2493 22.9399 52.783 22.8642 51.2533 21.534C49.9023 20.3363 49.4245 18.6197 49.3193 16.8721C49.1756 14.4822 49.2989 11.4032 50.9435 9.51313C52.2249 8.04051 54.0019 7.86255 55.8062 7.76152Z" fill="#6D3DF2"/>
<path d="M113.336 7.75995C113.573 7.72608 114.038 7.75177 114.299 7.76497C115.556 7.82834 118.362 7.57948 118.079 9.60937C117.707 12.2876 113.418 9.80728 111.962 11.2364C111.229 11.9551 111.219 12.7847 111.143 13.7396C112.736 13.7581 114.154 13.5935 115.754 13.7708C115.889 13.8606 116.018 13.9598 116.139 14.0677C116.682 14.559 116.796 15.776 116.249 16.2108C115.175 17.063 112.549 16.7518 111.191 16.7892C111.199 17.1586 111.204 17.5344 111.255 17.9009C111.567 20.1501 114.097 19.6061 115.688 19.2772C116.435 19.0837 117.185 18.9237 117.852 19.4413C118.163 19.6796 118.363 20.0353 118.405 20.4252C118.571 22.0237 116.645 22.5791 115.438 22.7299C115.176 22.7626 114.9 22.8047 114.637 22.8167C112.809 22.9568 110.184 22.8396 108.773 21.5183C106.074 18.9927 106.239 12.1125 108.561 9.39898C109.708 8.05854 111.679 7.81822 113.336 7.75995Z" fill="#6D3DF2"/>
<path d="M140.502 11.5606C140.792 11.5738 141.11 11.5709 141.391 11.6435C143.512 12.1904 142.073 16.4113 143.036 18.0063C143.212 18.2971 143.468 18.5125 143.806 18.5839C144.149 18.6568 144.562 18.5918 144.845 18.3764C145.842 17.6182 145.175 14.1334 145.365 12.8997C145.431 12.473 145.609 12.0719 145.977 11.822C146.439 11.5085 147.099 11.5 147.629 11.606C148.095 11.6993 148.547 11.913 148.811 12.3249C149.659 13.6512 149.154 19.8507 148.773 21.5373C148.394 23.2213 147.694 24.6899 146.198 25.6365C144.593 26.44 140.61 26.706 139.441 25.1735C139.187 24.8346 139.086 24.4044 139.164 23.9878C139.228 23.6153 139.453 23.2899 139.779 23.098C140.57 22.6227 141.522 23.2072 142.335 23.3825C144.675 23.8869 145.205 22.9079 145.662 20.8604C145.141 21.3685 144.721 21.6728 143.981 21.7451C139.611 22.1718 138.719 18.1282 138.836 14.6655C138.89 13.1252 138.453 11.7465 140.502 11.5606Z" fill="#6D3DF2"/>
<path d="M98.1433 11.2783C101.236 11.3646 103.404 13.0236 103.432 16.2509C103.44 17.1061 103.311 17.9496 103.565 18.7722L103.595 18.8664C104.151 19.1353 104.562 19.301 104.85 19.8856C105.021 20.2256 105.042 20.6214 104.909 20.9778C104.299 22.6256 101.692 22.4542 100.926 20.6405L100.315 21.2727C99.6005 21.7665 98.9369 22.0643 98.0551 22.1317C96.8311 22.2298 95.619 21.8328 94.6902 21.0296C93.519 20.0106 92.9406 18.5555 92.8703 17.034C92.6991 13.3308 94.5505 11.4442 98.1433 11.2783ZM98.5308 18.9826C101.003 18.4899 100.89 14.2812 97.9288 14.2682C95.3983 14.9359 95.6416 19.1588 98.5308 18.9826Z" fill="#6D3DF2"/>
<path d="M122.787 11.4148C122.86 11.4053 122.933 11.3978 123.006 11.3925C125.154 11.2275 127.229 12.0565 128.165 14.086C128.921 15.7252 128.554 17.2772 128.671 18.9897C129.357 19.49 129.931 20.0964 129.683 21.0242C129.576 21.4208 129.308 21.7545 128.943 21.9442C127.75 22.5779 126.741 21.7755 126.181 20.7443C125.995 21.0148 125.897 21.0977 125.66 21.3211C125.02 21.7615 124.402 22.0584 123.63 22.1846C122.424 22.3873 121.187 22.0984 120.195 21.3826C117.425 19.3627 117.24 13.9796 120.34 12.1869C121.195 11.6925 121.834 11.5387 122.787 11.4148ZM124.051 18.9729C126.408 17.9559 125.942 13.9838 123.019 14.3424C120.695 15.3754 121.038 19.303 124.051 18.9729Z" fill="#6D3DF2"/>
<path d="M74.5963 11.5547C77.704 11.687 76.2693 14.6345 76.4913 16.7132C76.5708 17.4577 76.8856 18.916 77.9126 18.6676C80.3368 18.0812 78.0911 13.4839 79.3179 11.9773C79.7937 11.4117 81.4236 11.428 81.9266 11.9956C82.6584 12.927 82.4537 15.4467 82.4655 16.609C82.493 17.9753 82.4448 19.297 81.6603 20.4723C80.2092 22.646 76.7767 22.7015 74.7539 21.3672C73.7526 20.7257 73.1968 19.4906 73.0366 18.3512C72.8055 16.7089 72.8378 15.0169 72.897 13.3649C72.9415 12.1243 73.4056 11.6976 74.5963 11.5547Z" fill="#6D3DF2"/>
<path d="M133.144 11.3436C133.487 11.2728 134.109 11.2763 134.469 11.2939C135.454 11.3421 136.543 11.4888 137.303 12.1798C137.917 12.7375 137.922 13.7025 137.372 14.3051C136.73 14.8827 135.878 14.3819 135.195 14.1577C134.58 13.9558 132.711 13.3305 132.836 14.5817C133.59 15.8148 138.249 15.229 138.321 18.4889C138.375 20.9078 136.941 21.9098 134.737 22.0886C133.476 22.2977 131.849 21.9874 130.809 21.2309C130.104 20.7396 129.393 19.5425 130.085 18.7669C131.009 17.7495 132.206 18.8773 133.23 19.0925C133.804 19.2132 134.882 19.4045 134.791 18.4577C134.677 17.9672 133.758 17.7679 133.363 17.6681C131.958 17.3126 129.685 16.7379 129.511 14.9716C129.283 12.6694 131.06 11.5753 133.144 11.3436Z" fill="#6D3DF2"/>
<path d="M87.7149 11.4065C88.8444 11.2675 90.1101 11.4061 91.1845 11.8331C92.1357 12.2111 92.9733 13.3905 92.3971 14.3908C91.4609 16.0163 89.5045 13.7298 87.9773 14.4055C86.7462 14.8627 86.4648 16.4909 86.8931 17.631C87.5248 19.3129 89.2833 18.7624 90.4973 18.2051C91.5784 17.7088 92.4329 18.0451 92.8414 19.1591C92.8722 19.6634 92.8835 20.1181 92.5836 20.5359C91.146 22.5391 87.4262 22.6875 85.5067 21.3857C84.376 20.6407 83.5563 19.4208 83.3538 18.0547C82.8127 14.4052 84.0926 12.09 87.7149 11.4065Z" fill="#6D3DF2"/>
</svg>
