<svg width="732" height="1098" viewBox="0 0 732 1098" fill="none" xmlns="http://www.w3.org/2000/svg">
<g clip-path="url(#clip0_634_1354)">
<path d="M0 633.313C12.1005 622.767 22.6052 617.636 39.3257 618.698C53.5351 619.566 66.8083 626.075 76.1956 636.771C82.5905 644.132 85.4703 650.973 86.539 660.537C107.191 642.416 147.565 650.308 150.201 680.481C150.583 684.862 145.777 688.062 141.796 688.18C126.368 688.625 110.869 688.4 95.4255 688.4L0 688.325V633.313Z" fill="#E5F6FB"/>
<path d="M205.767 496.817L206.226 496.013C206.915 498.682 207.256 500.847 207.766 503.526L206.495 506.096C206.039 503.034 205.933 499.911 205.767 496.817Z" fill="#FFB638" fill-opacity="0.34"/>
<path d="M258.396 191.634C258.808 192.985 259.463 194.805 259.594 196.149C259.287 197.69 258.953 199.698 258.539 201.169C258.337 198.386 258.421 194.503 258.396 191.634Z" fill="#FFB638" fill-opacity="0.34"/>
<path d="M135.93 54.7865C159.81 52.5174 176.252 65.196 180.044 88.8604C184.48 85.8087 189.641 83.9773 195.008 83.5484C206.828 82.7088 219.653 90.4259 221.275 103.165C221.815 107.407 218.479 110.667 214.262 110.934C206.734 111.411 198.996 111.201 191.402 111.185L147.07 111.205C129.752 111.078 112.433 111.049 95.1135 111.115C85.6973 111.147 75.8884 111.426 66.5634 111.032C57.345 110.003 60.0327 99.457 63.6198 94.6742C73.937 80.9176 90.5161 80.8715 103.813 89.7316C104.894 71.0667 118.181 58.4359 135.93 54.7865Z" fill="#E5F6FB"/>
<path d="M153.874 182.57C160.612 182.41 163.095 190.962 165.715 196.297C169.529 197.911 180.878 200.797 179.714 205.84C176.941 209.046 169.33 211.248 164.853 213.17C162.627 218.117 161.114 221.915 157.693 226.224C156.671 226.306 156.318 226.209 155.312 226.093C152.118 223.954 149.434 216.78 147.503 212.888C144.662 211.876 141.831 210.835 139.009 209.768C136.551 208.815 132.911 207.541 131.816 205.059C133.034 200.751 142.117 198.574 146.582 195.979L147.022 195.72C148.906 191.589 151.148 186.004 153.874 182.57Z" fill="#FEEB9D"/>
<path d="M128.298 414.144C131.428 415.741 133.584 422.022 135.589 425.701C138.446 427.201 145.843 429.289 146.939 432.14C145.589 435.06 138.916 437.058 135.619 438.511C133.465 442.206 132.174 446.713 129.345 449.91C126.605 448.011 124.405 441.73 121.931 437.97C118.617 436.624 112.427 435.408 110.761 432.385C111.921 429.495 118.969 427.273 122.271 425.822C124.653 422.171 125.61 418.088 128.298 414.144Z" fill="#FEEB9D"/>
<path d="M232.993 311.193C234.584 312.156 236.194 316.52 237.656 318.928C240.665 320.193 243.666 321.481 246.657 322.79C244.581 324.332 240.035 326.369 237.556 327.574C236.355 330.494 235.29 333.068 233.881 335.911C231.827 333.996 230.534 330.345 229.336 327.671C226.008 326.259 223.053 324.822 219.82 323.235C223.391 321.742 226.722 320.49 229.971 318.357C231.367 316.071 232.093 313.712 232.993 311.193Z" fill="#FEEB9D"/>
<path d="M180.303 719.833C181.129 720.46 181.87 722.181 182.185 723.146C183.816 728.122 187.451 728.711 192.264 730.556C189.409 731.526 186.786 732.566 183.992 733.671C182.977 736.089 181.91 738.48 180.794 740.844C179.411 739.777 177.731 735.724 176.953 734.041C174.768 732.829 171.303 731.499 168.914 730.502C177.17 727.484 176.976 728.159 180.303 719.833Z" fill="#FEEB9D"/>
<path d="M290.145 64.1084C290.869 65.2262 291.816 68.22 292.306 69.6086L299.264 72.3616L292.474 74.5201L290.2 80.2926C288.101 73.999 287.235 74.0869 281.036 72.1161C287.728 70.3581 288.203 70.772 290.145 64.1084Z" fill="#FEEB9D"/>
<path d="M118.989 1002.29C119.767 1003.12 120.359 1005.16 120.912 1005.63C127.939 1011.63 121.72 1007.55 119.768 1015.75L119.606 1016.44C118.042 1011.8 114.191 1010.3 113.997 1008.64C117.991 1006.69 117.725 1006.6 118.989 1002.29Z" fill="#FEEB9D"/>
<path d="M105.522 615.84C108.212 618.338 105.764 619.764 111.357 621.212L111.278 622.021C108.67 623.887 107.658 624.01 106.377 627.066L106.156 627.608L105.937 627.962C106.973 628.761 100.638 620.965 100.893 621.282C103.847 619.566 104.097 619.475 105.295 616.424L105.522 615.84Z" fill="#FEEB9D"/>
<path d="M282.492 658.259C285.673 658.404 287.997 659.508 288.345 662.746C285.561 661.894 283.392 661.127 282.492 658.259Z" fill="#FFF5CD"/>
<path d="M65.8828 910.005C67.9753 909.726 69.6956 909.329 71.4878 910.198L71.6841 911.565C69.9729 911.898 69.2859 911.903 67.527 911.946C65.9262 911.12 66.4641 911.737 65.8828 910.005Z" fill="#FFF5CD"/>
<path d="M264.554 151.91C265.466 152.221 265.523 152.38 266.267 153.02C266.153 154.752 265.979 154.393 264.55 156.053C263.175 155.472 263.156 155.557 262.346 154.366C262.866 152.78 262.928 153.148 264.554 151.91Z" fill="#FFF5CD"/>
<path d="M242.724 109.286C245.014 109.32 245.415 108.916 246.924 110.129L246.979 111.679C245.984 111.862 244.965 111.894 243.952 111.959C242.647 110.921 243.055 111.397 242.724 109.286Z" fill="#FFF5CD"/>
<path d="M357.962 48.2166C358.578 48.0613 359.23 48.263 359.651 48.7394C360.071 49.2158 360.191 49.8872 359.96 50.4793C359.729 51.0716 359.188 51.4854 358.555 51.5519C357.669 51.6452 356.861 51.0377 356.705 50.1603C356.549 49.283 357.098 48.4344 357.962 48.2166Z" fill="#FFF5CD"/>
<path d="M389.33 297.284C390.215 297.051 391.12 297.581 391.348 298.467C391.576 299.353 391.039 300.255 390.152 300.477C389.273 300.697 388.381 300.166 388.155 299.289C387.929 298.411 388.454 297.516 389.33 297.284Z" fill="#FFF5CD"/>
<path d="M28.9198 805.931C29.4885 805.754 30.1066 805.904 30.5343 806.317C30.962 806.729 31.1321 807.341 30.9786 807.92C30.8251 808.493 30.3722 808.938 29.7954 809.083C28.934 809.297 28.0574 808.788 27.8198 807.93C27.5822 807.078 28.0703 806.188 28.9198 805.931Z" fill="#FFF5CD"/>
<path d="M244.706 69.0132C246.502 69.5284 246.959 69.5874 248.385 70.762L248.441 71.8247C247.192 72.082 246.777 72.0252 245.539 71.9801C244.351 70.6634 244.688 71.2585 244.706 69.0132Z" fill="#FFF5CD"/>
<path d="M28.7523 131.687C29.1713 130.885 30.163 130.576 30.9636 130.998C31.7642 131.421 32.0685 132.414 31.6422 133.213C31.2185 134.005 30.2333 134.307 29.4378 133.888C28.6424 133.468 28.336 132.484 28.7523 131.687Z" fill="#FFF5CD"/>
<path d="M285.348 616.322C285.837 616.746 285.954 617.062 286.322 617.63C286.449 619.737 286.353 620 285.56 621.968L284.435 620.708C284.057 619.014 284.696 617.984 285.348 616.322Z" fill="#FFF5CD"/>
<path d="M112.525 1039.56C115.501 1039.47 115.841 1039.12 117.081 1041.66L114.986 1042.13C113.257 1041.37 113.742 1041.48 112.525 1039.56Z" fill="#FFF5CD"/>
<path d="M170.495 930.908C171.745 933.187 171.95 936.72 172.477 939.379L171.177 940.709C171.082 939.636 170.875 938.661 170.686 937.604L170.495 930.908Z" fill="#FFB638" fill-opacity="0.34"/>
<path d="M678.787 687.842C681.473 662.43 700.907 645.343 726.439 644.903C728.289 644.871 730.144 644.893 732 644.909V714.102L664.951 714.172C653.834 714.188 642.46 714.381 631.359 714.145C619.856 713.898 622.028 700.699 627.107 694.115C640.277 677.039 661.749 675.672 678.787 687.842Z" fill="#E5F6FB"/>
<path d="M648.069 1098C649.903 1087.69 654.274 1079.07 661.985 1071.86C671.493 1063.08 684.09 1058.41 697.02 1058.89C711.627 1059.4 722.235 1064.95 732 1075.43V1098H648.069Z" fill="#E5F6FB"/>
<path d="M369.487 676.477C367.601 669.453 365.418 662.146 360.869 656.152C338.848 627.136 297.316 612.216 267.325 592.835C265.426 591.612 245.068 577.78 244.963 577.764L243.464 579.378L242.518 579.276C240.746 576.82 243.405 576.263 241.818 574.821C223.205 557.879 207.668 538.53 204.255 512.785C204.137 511.891 204.19 510.634 204.8 509.902C205.915 526.431 214.365 542.872 224.614 555.638C248.928 585.924 284.768 600.93 317.364 619.99C327.196 625.828 336.69 632.224 345.798 639.135C354.074 645.499 360.333 652.828 365.645 661.872C367.621 665.239 367.669 670.451 369.703 672.198C373.233 656.527 356.491 639.752 345.218 630.782C326.237 615.674 303.941 605.284 282.818 593.553C272.708 587.95 262.935 581.763 253.549 575.019C236.451 562.506 218.95 544.835 210.691 525.146C209.567 522.467 206.799 516.716 207.738 514.295C212.684 526.321 215.383 534.648 223.82 545.408C238.021 563.519 256.275 576.434 275.617 588.229C305.496 606.458 361.043 627.308 371.133 663.904C371.782 669.169 371.144 671.4 369.487 676.477Z" fill="#FFF5CD"/>
<path d="M369.239 0H373.407C374.183 2.1124 374.977 4.21464 375.679 6.35285C376.843 12.006 378.054 16.1418 377.358 21.8979C374.372 18.6741 372.404 6.55492 369.239 0Z" fill="#FFF5CD"/>
<path d="M373.406 0H374.695H428.168C430.764 9.84163 430.712 16.6552 431.062 26.8205C431.055 28.5841 431.118 31.4416 430.948 33.0899C429.047 74.8361 402.764 102.568 375.153 131.274C361.574 145.393 348.024 158.496 343.666 178.209L344.35 181.937C352.878 198.703 381.713 207.399 399.131 213.104C439.195 226.229 489.417 240.966 511.047 280.608C517.164 291.817 518.442 302.597 518.123 315.081C518.708 318.235 518.549 321.088 518.5 324.278C513.538 391.195 413.498 415.783 366.066 445.537C351.922 454.408 339.353 463.605 334.973 480.683C335.459 482.298 335.888 483.805 336.501 485.381C339.957 491.08 344.303 497.069 349.743 500.968C382.539 524.475 423.351 536.583 459.058 555.391C476.929 564.703 493.424 576.445 508.073 590.282C537.197 618.081 544.12 642.325 544.377 681.436L543.803 681.441C543.6 741.338 474.179 786.105 429.961 814.89C408.729 828.711 386.55 843.578 371.048 863.86C362.76 874.926 359.58 884.919 356.846 898.194C357.125 901.861 357.634 904.204 358.376 907.764C372.822 949.984 412.202 972.314 445.602 998.842C452.83 1004.58 464.97 1013.42 471.135 1019.71L471.6 1019.94C494.175 1038.95 514.057 1059.88 529.303 1085.36C530.811 1087.88 535.17 1095.44 536.197 1098H292.589H279.628H265.444C253.887 1086.78 241.358 1076.52 230.018 1064.63C200.311 1033.45 175.728 997.346 169.597 953.786C169.054 949.931 167.781 940.64 169.987 937.686L170.686 937.605L170.495 930.909C169.921 929.574 170.035 924.389 169.957 922.706C166.979 858.247 202.498 811.008 253.179 773.409C261.085 767.646 269.1 762.032 277.22 756.575C280.285 754.521 290.374 748.104 292.386 746.029L292.333 744.785C293.235 743.316 294.26 745.541 296.49 743.943C320.275 726.883 360.914 706.569 369.487 676.476C371.144 671.399 371.782 669.169 371.133 663.904C372.662 658.902 370.741 652.602 368.973 647.895C348.117 592.32 233.127 586.267 207.767 503.526C207.256 500.847 206.915 498.682 206.226 496.013L205.767 496.818C204.682 493.452 206.47 474.701 207.57 469.803C222.596 409.582 293.117 382.527 343.875 359.501C362.998 350.826 413.792 333.432 418.322 311.554C413.287 291.598 379.853 281.758 362.714 275.831C333.902 265.898 302.892 257.321 279.372 236.987C269.75 228.669 259.39 214.082 258.539 201.169C258.953 199.698 259.287 197.69 259.593 196.149C259.463 194.805 258.807 192.985 258.396 191.634C258.261 170.817 263.31 159.314 276.177 143.285C309.204 102.143 368.347 78.9112 377.357 21.8979C378.054 16.1418 376.843 12.0061 375.679 6.35285C374.976 4.21464 374.183 2.1124 373.406 0Z" fill="#FFE6BC" fill-opacity="0.77"/>
<path d="M170.686 937.604C170.875 938.661 171.081 939.636 171.176 940.709L172.477 939.379C180.597 978.029 202.334 1010.48 229.541 1038.47C249.797 1059.32 272.484 1077 292.589 1098H279.628H265.444C253.887 1086.78 241.358 1076.52 230.018 1064.63C200.311 1033.45 175.728 997.346 169.597 953.785C169.054 949.93 167.781 940.639 169.987 937.685L170.686 937.604Z" fill="#FFB638" fill-opacity="0.34"/>
<path d="M170.686 937.604C170.875 938.661 171.081 939.636 171.176 940.709C171.284 949.93 174.203 959.5 176.858 968.089C192.534 1018.78 231.997 1055.49 270.633 1089.44C273.588 1092.04 276.871 1095.13 279.628 1098H265.444C253.887 1086.78 241.358 1076.52 230.018 1064.63C200.311 1033.45 175.728 997.346 169.597 953.785C169.054 949.93 167.781 940.639 169.987 937.685L170.686 937.604Z" fill="#FFF5CD"/>
<path d="M356.847 898.193C355.794 894.344 355.905 887.439 356.504 883.444C362.522 843.331 405.195 818.647 435.91 798.028C450.007 788.565 464.103 779.783 477.409 769.462C503.879 748.923 530.064 724.025 539.659 690.908C542.174 682.234 542.297 677.634 543.493 668.991C543.799 673.393 543.815 677.044 543.804 681.44C543.6 741.337 474.18 786.104 429.962 814.889C408.729 828.71 386.55 843.577 371.049 863.859C362.76 874.925 359.581 884.919 356.847 898.193Z" fill="#FFB638" fill-opacity="0.34"/>
<path d="M518.123 315.081C518.708 318.235 518.549 321.088 518.5 324.278C513.538 391.195 413.498 415.783 366.066 445.537C351.922 454.409 339.353 463.605 334.973 480.683C333.439 478.357 333.263 473.852 333.873 471.148C341.527 437.231 399.108 419.653 427.024 405.014C442.019 397.151 456.767 390.49 470.433 381.111C488.562 368.669 507.544 352.466 514.629 331.099C516.816 324.5 516.91 321.523 518.123 315.081Z" fill="#FFB638" fill-opacity="0.34"/>
<path d="M259.594 196.149C273.352 245.659 337.148 256.305 378.551 272.182C392.187 277.411 426.093 291.742 418.323 311.554C413.287 291.598 379.854 281.758 362.715 275.831C333.903 265.898 302.892 257.321 279.372 236.987C269.751 228.669 259.39 214.082 258.539 201.169C258.953 199.698 259.287 197.69 259.594 196.149Z" fill="#FFB638" fill-opacity="0.34"/>
<path d="M518.5 324.278C520.432 337.243 519.84 347.794 512.733 359.373C487.777 400.037 439.097 417.804 398.344 438.121C375.13 449.695 348.427 460.923 336.501 485.381C335.888 483.805 335.459 482.298 334.974 480.683C339.354 463.605 351.923 454.408 366.066 445.537C413.498 415.783 513.538 391.195 518.5 324.278Z" fill="#FFF5CD"/>
<path d="M430.949 33.0898C435.088 45.1173 428.886 67.6771 423.519 78.9514C415.328 96.1564 401.416 113.229 388.647 127.242C371.319 146.259 355.273 158.096 344.351 181.937L343.667 178.209C348.025 158.496 361.574 145.393 375.154 131.274C402.765 102.568 429.048 74.836 430.949 33.0898Z" fill="#FFF5CD"/>
<path d="M207.767 503.526C233.127 586.267 348.117 592.32 368.973 647.896C370.741 652.603 372.662 658.902 371.133 663.905C361.042 627.308 305.496 606.458 275.617 588.229C256.275 576.435 238.021 563.519 223.82 545.409C215.383 534.648 212.684 526.321 207.738 514.295C207.116 511.203 206.78 509.227 206.496 506.097L207.767 503.526Z" fill="#FFB638" fill-opacity="0.34"/>
<path d="M343.666 178.209C334.101 159.317 374.428 122.432 385.608 110.546C408.312 86.4074 427.415 60.7781 430.348 26.7876L431.062 26.821C431.055 28.5846 431.118 31.442 430.948 33.0904C429.047 74.8366 402.764 102.568 375.153 131.275C361.574 145.393 348.024 158.496 343.666 178.209Z" fill="#FFB638" fill-opacity="0.34"/>
<path d="M544.378 681.436C549.118 690.662 541.75 714.933 539.058 724.321C539.058 724.321 539.959 726.17 540.077 726.417C539.675 727.425 539.996 727.436 539.063 727.865C535.202 729.634 533.476 735.215 531.166 739C528.173 743.836 524.897 748.495 521.357 752.945C500.453 779.51 475.365 796.779 447.615 815.876C416.425 837.338 374.118 859.646 361.099 897.706C360.066 900.73 359.202 904.633 358.376 907.764C357.634 904.204 357.125 901.861 356.847 898.194C359.581 884.919 362.76 874.926 371.049 863.86C386.55 843.578 408.729 828.711 429.961 814.89C474.18 786.105 543.6 741.338 543.804 681.441L544.378 681.436Z" fill="#FFF5CD"/>
<path d="M378.27 1039.15C388.554 1037.85 395.379 1040.09 402.643 1047.39C411.979 1056.77 427.372 1067.77 432.577 1079.87C436.59 1089.2 416.377 1094.62 410.602 1095.71C390.284 1098.63 388.611 1087.93 375.987 1075.14C369.579 1068.65 349.131 1058.43 358.664 1047.98C363.215 1042.99 371.841 1040.46 378.27 1039.15Z" fill="#FFDDA2" fill-opacity="0.54"/>
<path d="M310.977 978.127C315.244 977.955 322.133 978.448 325.351 981.585C336.216 992.168 347.481 1001.9 359.178 1011.54C362.525 1014.29 364.146 1020.27 360.903 1023.85C355.07 1030.3 346.897 1032.41 338.549 1033.45C322.811 1034.25 317.834 1024.13 306.687 1015.83C286.163 1000.55 275.147 982.078 310.977 978.127Z" fill="#FFDDA2" fill-opacity="0.54"/>
<path d="M266.455 907.351C277.022 906.246 285.902 909.002 287.364 919.998C288.007 924.839 290.251 930.318 292.084 934.854C294.271 940.264 299.974 947.609 301.12 953.104C301.521 955.115 301.083 957.206 299.909 958.889C296.28 964.073 286.317 965.998 280.433 966.877C264.281 968.711 261.087 963.441 254.964 949.839C250.334 939.556 247.686 930.345 245.345 919.344C246.108 916.835 246.634 915.848 247.834 913.505C253.3 909.382 259.839 908.101 266.455 907.351Z" fill="#FFDDA2" fill-opacity="0.54"/>
<path d="M274.289 834.897C280.283 834.136 298.382 834.704 297.759 844.446C297.343 850.971 290.088 859.983 288.318 866.738C284.361 881.831 287.344 887.321 270.301 890.366C264.014 891.304 246.109 892.071 245.502 883.825C244.6 871.58 253.893 852.354 260.299 841.878C263.518 836.613 269.117 835.793 274.289 834.897Z" fill="#FFDDA2" fill-opacity="0.54"/>
<path d="M337.435 777.082C343.316 777.103 356.929 779.618 357.825 786.882C358.033 788.668 357.497 790.459 356.344 791.831C353.697 795.032 325.222 816.145 319.83 820.766C317.883 822.433 311.181 823.286 308.372 823.527C301.037 823.377 279.21 819.174 289.906 807.593C295.505 802.184 301.829 796.758 308.155 792.212C318.886 784.507 323.737 778.026 337.435 777.082Z" fill="#FFDDA2" fill-opacity="0.54"/>
<path d="M403.363 727.597C427.591 725.345 438.758 738.807 413.469 752.114C403.132 757.551 394.92 767.523 382.459 771.158C375.361 772.241 359.565 770.777 356.923 762.708C356.383 761.084 356.561 759.309 357.414 757.824C359.731 753.733 393.522 733.339 398.712 728.985C399.087 728.674 402.581 727.779 403.363 727.597Z" fill="#FFDDA2" fill-opacity="0.54"/>
<path d="M452.93 669.759C458.646 669.464 474.129 668.922 474.448 676.401C474.875 686.448 465.383 701.305 459.647 709.186C454.567 716.172 451.4 717.142 443.628 718.204C438.233 718.643 423.783 717.185 422.312 710.96C421.824 703.422 432.519 695.086 435.209 688.727C440.826 675.447 438.208 672.557 452.93 669.759Z" fill="#FFDDA2" fill-opacity="0.54"/>
<path d="M449.717 613.545C461.602 612.269 464.521 615.25 469.466 625.592C472.436 631.8 474.119 636.7 475.577 643.44C478.129 655.229 468.485 655.771 459.701 657.148C440.845 659.239 441.271 651.02 438.59 636.813C437.755 632.39 429.48 624.219 434.184 619.024C437.618 615.234 445.159 614.07 449.717 613.545Z" fill="#FFDDA2" fill-opacity="0.54"/>
<path d="M400.111 570.595C412.698 569.791 426.006 579.007 436.095 585.998C449.691 595.418 446.325 602.012 431.622 605.69C416.668 608.607 414.855 603.347 403.875 594.608C399.559 591.172 387.355 587.687 385.729 581.924C383.866 575.329 395.465 571.571 400.111 570.595Z" fill="#FFDDA2" fill-opacity="0.54"/>
<path d="M332.433 537.843C334.031 537.757 337.153 537.553 338.56 538.079C350.933 542.722 363.347 549.064 375.429 554.409C389.887 560.805 377.981 569.04 368.289 571.067C356.131 572.493 351.433 567.957 340.868 563.856C327.083 558.511 301.609 545.376 332.433 537.843Z" fill="#FFDDA2" fill-opacity="0.54"/>
<path d="M280.559 498.174C294.141 497.022 293.564 500.372 301.363 510.29C304.096 513.766 315.727 521.729 316.987 524.883C317.522 526.252 317.462 527.782 316.819 529.104C315.048 532.827 309.056 534.628 305.439 535.83C290.484 539.161 274.615 521.61 268.988 509.094C265.712 501.808 275.418 499.388 280.559 498.174Z" fill="#FFDDA2" fill-opacity="0.54"/>
<path d="M272.942 448.319C301.208 446.101 286.313 457.819 286.541 475.294C286.656 484.088 285.046 485.543 276.375 487.653C266.403 488.476 257.2 489.236 258.354 475.877C259.03 468.052 260.842 460.745 264.394 453.705C266.32 449.889 269.182 449.411 272.942 448.319Z" fill="#FFDDA2" fill-opacity="0.54"/>
<path d="M315.825 404.916C319.183 404.65 322.557 405.194 325.661 406.503C330.221 408.403 332.408 410.809 330.256 415.678C326.121 419.538 317.906 424.272 313.279 428.155C309.618 431.228 306.042 434.39 302.418 437.499C301.543 438.25 297.841 438.839 296.507 439.075C257.604 438.934 302.32 407.375 315.825 404.916Z" fill="#FFDDA2" fill-opacity="0.54"/>
<path d="M375.297 374.339C378.733 373.969 382.231 373.83 385.497 375.077C392.665 377.841 395.848 383.499 387.43 387.828C379.35 391.983 370.718 394.966 362.565 399.008C359.45 400.553 356.239 402.043 352.906 403.015C347.374 404.446 337.4 402.714 336.022 397.592C333.514 388.274 369.485 376.098 375.297 374.339Z" fill="#FFDDA2" fill-opacity="0.54"/>
<path d="M433.455 344.283C438.946 344.046 453.346 345.718 448.767 353.455C444.638 360.433 421.443 371.999 414.15 374.14C408.762 374.528 401.423 374.535 399.038 368.933C397.497 366.59 398.694 362.598 401.336 361.466C411.382 357.162 423.839 348.082 433.455 344.283Z" fill="#FFDDA2" fill-opacity="0.54"/>
<path d="M464.252 303.021C483.427 301.639 480.437 311.932 474.209 325.554C471.462 331.56 468.322 335.825 461.921 337.967C459.122 338.259 452.672 337.876 450.173 336.785C442.086 332.957 452.012 322.658 453.832 317.927C457.093 309.448 454.088 305.893 464.252 303.021Z" fill="#FFDDA2" fill-opacity="0.54"/>
<path d="M393.361 236.561C401.805 236.016 454.505 251.756 426.554 260.487C416.873 261.534 409.465 255.883 400.706 253.7C391.687 251.452 374.693 241.699 393.361 236.561Z" fill="#FFDDA2" fill-opacity="0.54"/>
<path d="M448.044 262.3C455.626 261.563 462.515 268.251 467.142 273.58C474.462 282.011 479.825 289.936 465.323 293.268C452.949 293.749 455.563 291.525 449.52 283.194C444.507 276.285 426.6 265.945 448.044 262.3Z" fill="#FFDDA2" fill-opacity="0.54"/>
<path d="M339.879 216.156C346.512 215.739 358.231 222.571 364.941 224.381C374.972 227.089 383.968 235.791 367.758 239.643C359.142 239.948 350.853 235.861 342.882 232.977C332.426 229.194 322.587 220.362 339.879 216.156Z" fill="#FFDDA2" fill-opacity="0.54"/>
<path d="M302.793 186.155C304.896 185.983 311.167 185.45 312.247 187.306C316.227 194.143 324.124 201.095 327.859 207.609C327.573 212.138 324.66 213.028 320.93 214.382C309.325 216.812 300.564 204.839 296.241 195.306C293.732 189.772 298.156 187.396 302.793 186.155Z" fill="#FFDDA2" fill-opacity="0.54"/>
<path d="M305.708 146.468C323.157 145.34 318.868 151.505 313.793 163.024C310.861 169.68 313.998 173.74 305.254 176.767C293.642 178.871 290.1 173.084 294.31 162.637C296.796 156.467 299.353 149.4 305.708 146.468Z" fill="#FFDDA2" fill-opacity="0.54"/>
<path d="M340.529 111.704C343.891 111.853 347.538 111.674 348.955 115.277C349.019 116.69 348.875 118.345 347.803 119.669C342.811 125.832 335.475 132.233 329.433 137.427C328.659 138.094 325.579 138.768 324.662 138.972C312.574 138.523 313.016 132.321 320.8 125.334C326.384 120.321 332.928 112.682 340.529 111.704Z" fill="#FFDDA2" fill-opacity="0.54"/>
<path d="M374.311 77.8434C390.364 77.2252 379.57 90.0522 373.834 94.9374C368.999 99.056 366.36 104.088 359.609 105.457C356.197 105.449 352.389 105.718 350.91 102.031C350.778 100.444 351.172 98.1322 352.294 97.0353C357.605 91.8493 367.426 79.2025 374.311 77.8434Z" fill="#FFDDA2" fill-opacity="0.54"/>
<path d="M398.388 43.0009C410.743 42.5553 404.423 54.0545 401.006 59.9504C397.741 65.5846 395.773 69.1724 389.365 70.9502C386.156 70.9352 382.851 70.7154 380.875 67.8669C380.26 64.4962 389.493 50.9804 391.273 46.9685C392.478 44.2525 395.641 43.6646 398.388 43.0009Z" fill="#FFDDA2" fill-opacity="0.54"/>
<path d="M404.277 7.56396C412.33 8.19875 411.931 15.7145 411.853 22.1992C411.762 29.8211 410.276 33.766 402.339 35.4169C399.227 34.919 398.013 34.8554 395.887 32.402C395.328 29.4908 396.62 14.3193 397.428 11.2775C399.182 8.7923 401.485 8.32216 404.277 7.56396Z" fill="#FFDDA2" fill-opacity="0.54"/>
<path d="M610.971 1098C618.098 1093.86 630.866 1093.24 637.816 1098H610.971Z" fill="#E5F6FB"/>
<path d="M471.136 1019.71C472.011 1017.41 471.486 1017.69 473.166 1016.7L474.322 1016.96L474.777 1018.01C473.938 1019.68 473.528 1019.7 471.6 1019.94L471.136 1019.71Z" fill="#FFF5CD"/>
<path d="M635.413 152.996C657.03 150.811 674.464 166.194 676.995 187.419C689.999 179.151 704.409 179.86 714.115 193.049C718.073 198.427 719.982 208.643 710.613 209.343C703.004 209.911 694.858 209.638 687.136 209.635L639.494 209.603L589.659 209.606C580.971 209.629 572.268 209.718 563.58 209.595C560.197 209.52 557.998 206.877 557.483 203.717C556.818 199.673 558.035 197.299 560.116 194.048C566.015 184.836 577.684 180.572 588.248 182.829C592.935 183.83 595.976 185.574 599.875 188.215C603.162 168.16 614.804 155.462 635.413 152.996Z" fill="#E5F6FB"/>
<path d="M631.709 308.737C636.465 310.381 638.369 316.64 641.866 321.393C645.732 322.728 651.711 323.318 654.656 325.978C659.214 330.088 649.861 336.824 647.207 339.134C648.322 354.889 646.59 356.995 632.149 348.805C618.468 356.616 615.449 355.854 616.758 339.171C613.299 336.21 606.386 332.064 608.043 327.075C610.741 324.089 617.846 322.834 621.895 321.792C625.027 316.7 626.496 311.384 631.709 308.737Z" fill="#FEEB9D"/>
<path d="M578.215 71.0049C581.942 72.6578 583.556 77.9896 585.455 81.9356C588.495 83.4555 596.266 84.9862 595.51 88.8463C593.45 91.1292 588.645 92.5901 585.599 93.7723C583.98 97.4116 582.237 100.997 580.382 104.522C576.199 103.565 574.88 97.9809 573.163 94.2511C569.983 92.581 563.479 90.9978 561.961 88.0689C563.264 85.0333 569.136 83.4442 572.429 82.0385C574.638 78.6341 575.593 74.8924 578.215 71.0049Z" fill="#FEEB9D"/>
<path d="M590.587 862.853C594.035 864.311 595.489 869.254 596.996 872.733C599.8 873.993 606.289 875.875 607.201 878.802C605.662 881.987 601.473 882.764 597.934 884.008C596.298 887.547 594.518 892.018 592.25 895.069C588.415 893.53 587.059 888.474 585.192 884.502C582.339 883.435 576.349 881.66 574.955 879.146C576.012 876.368 582.12 874.412 585.3 872.782C587.294 869.415 587.959 866.498 590.587 862.853Z" fill="#FEEB9D"/>
<path d="M552.303 463.497C554.679 464.656 556.148 468.988 557.725 471.856C560.616 473.32 564.487 474.026 566.343 476.352L566.144 477.508C564.418 479.226 560.455 480.47 558.036 481.409C556.615 483.669 554.663 488.299 552.995 491.197C550.979 489.74 549.021 484.506 547.552 481.739C545.23 480.821 539.122 479.068 538.795 476.599C540.495 474.955 545.782 472.906 548.19 471.781C549.504 469.508 550.931 466.082 552.303 463.497Z" fill="#FEEB9D"/>
<path d="M451.036 165.412C451.689 166.645 452.698 169.184 453.289 170.558C454.874 171.403 457.47 172.453 459.198 173.206C452.966 175.435 454.12 175.009 451.19 180.302C450.58 178.777 449.423 176.637 448.661 175.115L442.03 173.361C444.434 172.484 446.514 171.564 448.853 170.526C449.705 168.893 450.353 167.127 451.036 165.412Z" fill="#FEEB9D"/>
<path d="M655.201 537.071C655.566 537.436 656.622 539.521 656.95 540.117C658.526 543.033 661.127 543.055 664.103 543.639C658.66 545.896 658.076 545.644 655.791 550.855C651.641 546.046 654.52 546.706 647.254 544.052C652.482 542.352 653.378 542.272 655.201 537.071Z" fill="#FEEB9D"/>
<path d="M635.891 936.822C638.647 942.655 636.314 942.441 644.085 944.13C637.741 946.355 637.591 946.451 635.821 952.869C635.097 950.403 634.877 948.724 632.855 947.159L629.396 944.516L629.354 943.787C634.244 942.189 634.335 941.594 635.891 936.822Z" fill="#FEEB9D"/>
<path d="M703.068 573.325C703.894 572.891 704.908 573.164 705.406 573.952C705.9 574.74 705.707 575.775 704.956 576.327C704.42 576.724 703.707 576.788 703.106 576.494C702.511 576.193 702.125 575.587 702.119 574.917C702.114 574.252 702.479 573.636 703.068 573.325Z" fill="#FFF5CD"/>
<path d="M577.953 546.041C578.516 545.703 579.219 545.709 579.777 546.052C580.34 546.395 580.661 547.017 580.624 547.671C580.581 548.325 580.184 548.904 579.589 549.172C578.731 549.558 577.723 549.21 577.288 548.379C576.854 547.548 577.143 546.518 577.953 546.041Z" fill="#FFF5CD"/>
<path d="M724.642 451.685C725.355 451.078 726.428 451.152 727.055 451.853C727.683 452.553 727.635 453.625 726.953 454.27C726.492 454.702 725.833 454.851 725.232 454.659C724.631 454.468 724.186 453.965 724.063 453.347C723.94 452.729 724.16 452.092 724.642 451.685Z" fill="#FFF5CD"/>
<path d="M408.634 172.004C409.25 171.821 409.917 171.993 410.367 172.452C410.816 172.91 410.977 173.579 410.783 174.192C410.59 174.804 410.073 175.259 409.442 175.375C408.534 175.543 407.654 174.97 407.439 174.072C407.224 173.175 407.749 172.266 408.634 172.004Z" fill="#FFF5CD"/>
<path d="M403.467 494.573C404.196 493.965 405.276 494.05 405.9 494.763C406.524 495.478 406.464 496.559 405.765 497.2C405.298 497.627 404.636 497.768 404.035 497.568C403.434 497.369 402.988 496.859 402.87 496.237C402.752 495.615 402.981 494.978 403.467 494.573Z" fill="#FFF5CD"/>
<path d="M707.976 806.59C708.421 806.145 709.07 805.979 709.67 806.156C710.276 806.332 710.727 806.826 710.861 807.442C710.99 808.053 710.77 808.686 710.293 809.094C709.595 809.689 708.555 809.624 707.933 808.949C707.311 808.279 707.332 807.238 707.976 806.59Z" fill="#FFF5CD"/>
<path d="M667.632 1039.3C668.281 1038.64 669.348 1038.63 670.018 1039.27C670.688 1039.91 670.715 1040.98 670.077 1041.65C669.428 1042.34 668.35 1042.36 667.669 1041.71C666.988 1041.06 666.972 1039.98 667.632 1039.3Z" fill="#FFF5CD"/>
<path d="M621.604 88.7356C622.382 88.304 623.363 88.5554 623.835 89.3081C624.307 90.0614 624.109 91.0522 623.379 91.5642C622.875 91.9207 622.216 91.9684 621.663 91.6891C621.111 91.4093 620.757 90.8479 620.746 90.2292C620.736 89.6105 621.063 89.0358 621.604 88.7356Z" fill="#FFF5CD"/>
<path d="M384.768 472.659C385.476 472.317 386.328 472.546 386.769 473.197C387.21 473.847 387.107 474.723 386.527 475.253C386.068 475.673 385.407 475.786 384.835 475.542C384.263 475.298 383.887 474.744 383.873 474.122C383.858 473.501 384.208 472.929 384.768 472.659Z" fill="#FFF5CD"/>
<path d="M718.384 360.568C718.743 360.149 719.312 359.968 719.848 360.101C720.384 360.234 720.797 360.66 720.915 361.198C721.038 361.738 720.845 362.298 720.416 362.648C719.832 363.127 718.979 363.079 718.448 362.538C717.917 361.997 717.891 361.142 718.384 360.568Z" fill="#FFF5CD"/>
</g>
<defs>
<clipPath id="clip0_634_1354">
<rect width="732" height="1098" fill="white"/>
</clipPath>
</defs>
</svg>
