<svg width="45" height="46" viewBox="0 0 45 46" fill="none" xmlns="http://www.w3.org/2000/svg">
<g filter="url(#filter0_d_242_1339)">
<rect x="2" y="2" width="40" height="40" rx="20" fill="#FFCC00"/>
<rect x="1" y="1" width="42" height="42" rx="21" stroke="white" stroke-width="2"/>
<rect x="6" y="6" width="32" height="32" rx="16" fill="#FFB700"/>
<path d="M22.2 31.48C21.8533 31.48 21.5667 31.36 21.34 31.12C21.1133 30.8933 21 30.6133 21 30.28V28.64L21.54 29.12C20.62 29.0933 19.82 28.98 19.14 28.78C18.46 28.58 17.8933 28.36 17.44 28.12C17.1467 27.9733 16.94 27.7733 16.82 27.52C16.7133 27.2667 16.6733 27.0067 16.7 26.74C16.7267 26.46 16.82 26.22 16.98 26.02C17.14 25.8067 17.3467 25.6667 17.6 25.6C17.8667 25.5333 18.1667 25.5867 18.5 25.76C18.82 25.9333 19.2667 26.1133 19.84 26.3C20.4133 26.4733 21.1133 26.56 21.94 26.56C22.5533 26.56 23.0467 26.4933 23.42 26.36C23.7933 26.2133 24.06 26.0267 24.22 25.8C24.3933 25.5733 24.48 25.3133 24.48 25.02C24.48 24.78 24.42 24.5667 24.3 24.38C24.1933 24.1933 24 24.0333 23.72 23.9C23.4533 23.7533 23.0933 23.6333 22.64 23.54L20.44 23.06C19.2133 22.7933 18.3 22.34 17.7 21.7C17.1 21.0467 16.8 20.2067 16.8 19.18C16.8 18.38 16.9933 17.6667 17.38 17.04C17.78 16.4133 18.3267 15.9067 19.02 15.52C19.7267 15.1333 20.5533 14.9 21.5 14.82L21 15.14V13.62C21 13.2867 21.1133 13.0067 21.34 12.78C21.5667 12.54 21.8533 12.42 22.2 12.42C22.5333 12.42 22.8133 12.54 23.04 12.78C23.2667 13.0067 23.38 13.2867 23.38 13.62V15.14L22.88 14.78C23.4267 14.8067 24.0133 14.9133 24.64 15.1C25.28 15.2733 25.8333 15.5267 26.3 15.86C26.5533 16.02 26.7267 16.22 26.82 16.46C26.9267 16.7 26.9533 16.94 26.9 17.18C26.86 17.42 26.76 17.6333 26.6 17.82C26.44 17.9933 26.2267 18.1067 25.96 18.16C25.7067 18.2 25.4067 18.1333 25.06 17.96C24.7 17.7867 24.3067 17.64 23.88 17.52C23.4533 17.4 22.9267 17.34 22.3 17.34C21.5133 17.34 20.9 17.5 20.46 17.82C20.0333 18.14 19.82 18.5533 19.82 19.06C19.82 19.4333 19.9467 19.7333 20.2 19.96C20.4667 20.1867 20.9267 20.3733 21.58 20.52L23.8 21C25.0667 21.28 26 21.7333 26.6 22.36C27.2133 22.9867 27.52 23.8 27.52 24.8C27.52 25.5867 27.3267 26.2867 26.94 26.9C26.5533 27.5 26.02 27.9867 25.34 28.36C24.66 28.7333 23.8667 28.9733 22.96 29.08L23.38 28.62V30.28C23.38 30.6133 23.2667 30.8933 23.04 31.12C22.8267 31.36 22.5467 31.48 22.2 31.48Z" fill="white"/>
<g clip-path="url(#clip0_242_1339)">
<path d="M31.5904 7.1725C31.6083 7.07692 31.659 6.99059 31.7338 6.92847C31.8086 6.86634 31.9028 6.83234 32 6.83234C32.0972 6.83234 32.1914 6.86634 32.2662 6.92847C32.341 6.99059 32.3917 7.07692 32.4096 7.1725L32.8475 9.48833C32.8786 9.65298 32.9586 9.80442 33.0771 9.92291C33.1956 10.0414 33.347 10.1214 33.5117 10.1525L35.8275 10.5904C35.9231 10.6083 36.0094 10.659 36.0715 10.7338C36.1337 10.8086 36.1677 10.9028 36.1677 11C36.1677 11.0972 36.1337 11.1914 36.0715 11.2662C36.0094 11.341 35.9231 11.3917 35.8275 11.4096L33.5117 11.8475C33.347 11.8786 33.1956 11.9586 33.0771 12.0771C32.9586 12.1956 32.8786 12.347 32.8475 12.5117L32.4096 14.8275C32.3917 14.9231 32.341 15.0094 32.2662 15.0715C32.1914 15.1337 32.0972 15.1677 32 15.1677C31.9028 15.1677 31.8086 15.1337 31.7338 15.0715C31.659 15.0094 31.6083 14.9231 31.5904 14.8275L31.1525 12.5117C31.1214 12.347 31.0414 12.1956 30.9229 12.0771C30.8044 11.9586 30.653 11.8786 30.4883 11.8475L28.1725 11.4096C28.0769 11.3917 27.9906 11.341 27.9285 11.2662C27.8663 11.1914 27.8323 11.0972 27.8323 11C27.8323 10.9028 27.8663 10.8086 27.9285 10.7338C27.9906 10.659 28.0769 10.6083 28.1725 10.5904L30.4883 10.1525C30.653 10.1214 30.8044 10.0414 30.9229 9.92291C31.0414 9.80442 31.1214 9.65298 31.1525 9.48833L31.5904 7.1725Z" fill="white" stroke="white" stroke-width="0.458333" stroke-linecap="round" stroke-linejoin="round"/>
</g>
</g>
<defs>
<filter id="filter0_d_242_1339" x="0" y="0" width="45" height="46" filterUnits="userSpaceOnUse" color-interpolation-filters="sRGB">
<feFlood flood-opacity="0" result="BackgroundImageFix"/>
<feColorMatrix in="SourceAlpha" type="matrix" values="0 0 0 0 0 0 0 0 0 0 0 0 0 0 0 0 0 0 127 0" result="hardAlpha"/>
<feOffset dx="1" dy="2"/>
<feComposite in2="hardAlpha" operator="out"/>
<feColorMatrix type="matrix" values="0 0 0 0 0.796078 0 0 0 0 0.823529 0 0 0 0 0.85098 0 0 0 1 0"/>
<feBlend mode="normal" in2="BackgroundImageFix" result="effect1_dropShadow_242_1339"/>
<feBlend mode="normal" in="SourceGraphic" in2="effect1_dropShadow_242_1339" result="shape"/>
</filter>
<clipPath id="clip0_242_1339">
<rect width="10" height="10" fill="white" transform="translate(27 6)"/>
</clipPath>
</defs>
</svg>
