<svg width="40" height="40" viewBox="0 0 40 40" fill="none" xmlns="http://www.w3.org/2000/svg">
<path fill-rule="evenodd" clip-rule="evenodd" d="M5.80285 1.15861C5.91244 1.04957 6.14005 1.19607 6.16599 1.21295C6.34377 1.32845 6.34507 1.32435 6.74384 1.55489C6.77521 1.57304 6.76369 1.58597 7.12288 1.80405C7.20129 1.85162 7.36979 2.00184 7.39325 2.02273C7.54987 2.16134 7.64843 2.17583 7.89687 2.40177C8.0685 2.55778 8.21334 2.61473 8.39652 2.78612C8.59585 2.97273 8.57755 2.99013 9.05654 3.38119C9.97912 4.13433 10.4426 4.81947 10.7251 5.12268C10.7829 5.18455 10.8997 5.26911 11.0591 5.54281C11.1818 5.75356 11.2455 5.70675 11.4368 6.04643C11.5277 6.20784 11.5914 6.21184 11.7032 6.4162C11.8549 6.69346 11.8956 6.66453 12.0624 6.93308C12.2967 7.31065 12.7448 6.90022 13.5918 6.59247C14.1218 6.39987 14.395 6.34158 14.4679 6.32608C14.5276 6.31335 14.5205 6.28963 15.2034 6.118C15.4552 6.05471 15.4581 6.07437 15.7084 6.00137C16.0179 5.91093 16.0293 5.97314 16.3406 5.88209C16.7126 5.77342 16.7297 5.87995 17.1053 5.77872C17.7181 5.61354 17.7394 5.76685 18.3617 5.63426C18.5892 5.58572 18.7445 5.55233 21.2695 5.58522C21.7796 5.59177 21.7696 5.68622 22.278 5.70052C22.7114 5.71275 22.7112 5.71329 23.0361 5.79595C23.1761 5.83136 23.5646 5.83293 23.6484 5.85691C23.9026 5.93009 23.9005 5.93376 24.1653 5.96294C24.3642 5.98473 24.3489 6.03846 24.5443 6.07427C24.5855 6.08182 24.6287 6.08187 24.6703 6.08752C24.7395 6.09729 25.1291 6.20958 25.1699 6.22138C25.2573 6.24658 25.3407 6.28576 25.4283 6.31017C25.6212 6.36375 25.6222 6.35243 25.81 6.42283C25.9042 6.4582 25.952 6.47284 25.9996 6.48644L26.3786 6.61102C26.4262 6.62486 26.4736 6.63993 26.5655 6.67994C26.9556 6.8499 26.9668 6.81897 27.3448 7.00862C27.3779 7.02527 27.6521 7.16303 27.8073 7.03115C27.8233 7.01741 27.8151 7.01196 27.9677 6.81513C28.0925 6.65413 28.4304 6.1142 28.4753 6.06101C28.4839 6.0507 28.484 6.0511 28.5906 5.92715C28.7232 5.77296 28.7733 5.6431 28.9736 5.42883C29.2495 5.13387 29.1982 5.0917 29.4839 4.80327C30.9006 3.37303 31.2489 3.02629 31.387 2.93853C31.6213 2.79021 31.6185 2.78767 31.8231 2.59925C32.0566 2.38405 32.0855 2.42504 32.3307 2.2202C32.5775 2.01403 32.9485 1.79341 33.2279 1.6026C33.2767 1.56929 33.2849 1.58305 33.8574 1.21428C33.8781 1.20108 34.0179 1.11321 34.1596 1.23018C34.2175 1.27808 34.2021 1.29065 34.3929 1.88225C34.7172 2.88858 34.7473 2.87811 35.0012 3.90735C35.1899 4.67156 35.2083 4.66914 35.2318 4.91593C35.2622 5.23585 35.3361 5.2228 35.3564 5.54413C35.3781 5.89021 35.465 5.87511 35.4783 6.17499C35.495 6.55156 35.4991 6.55009 35.5737 6.91718C35.6565 7.32329 35.5482 7.63858 35.6718 8.43733C35.795 9.23317 35.6326 9.23532 35.6056 10.5857C35.5979 10.9714 35.503 10.9582 35.4823 11.3411C35.4616 11.7267 35.387 11.7138 35.3524 12.0952C35.329 12.3562 35.2666 12.3421 35.2318 12.5989C35.1772 13.004 34.8946 13.428 35.3127 13.9534C35.7294 14.4769 36.4399 15.801 36.7467 16.7723C37.0331 17.6798 37.0636 17.6685 37.3961 18.9101C37.465 19.1673 37.5914 19.4947 37.628 19.7928C37.6343 19.8439 37.6592 19.8391 37.7632 20.4236C37.8039 20.6519 37.8582 20.6396 37.8785 20.9259C37.9013 21.2477 37.9804 21.2342 38.0044 21.5568C38.0283 21.8797 38.0991 21.8666 38.1316 22.189C38.1345 22.2182 38.1366 22.2169 38.2059 22.5494C38.3891 23.4489 38.821 24.7308 38.8857 25.4665C38.9265 25.9297 38.9994 25.9235 38.9997 26.5983C39.0001 27.5461 38.9672 27.5448 38.9109 27.8561C38.8556 28.1629 38.9348 28.2187 38.6618 29.1165C38.6066 29.2981 38.2467 30.4815 37.6983 31.286C37.5316 31.5305 37.2496 31.9978 36.8911 32.3861C36.8695 32.4102 36.2874 33.0897 35.9713 33.3496C35.622 33.6369 35.6446 33.6621 35.2888 33.9433C35.1116 34.0833 35.0988 34.0624 34.9204 34.2057C34.6958 34.3859 34.3055 34.6426 34.259 34.6696C34.1 34.7615 34.1233 34.8571 34.0987 34.9161C34.0251 34.984 34.0614 35.0249 33.8521 35.1427C31.7181 36.3444 29.9534 36.9411 27.578 37.4594C24.6054 38.0598 22.4854 38.0452 21.7612 38.1698C21.725 38.1683 21.6979 38.2177 21.6618 38.2162C21.5224 38.2099 21.5341 38.1527 21.3954 38.1512C19.5619 38.1362 19.5607 38.2368 16.8601 38.0373C15.0652 37.9046 13.4252 37.6097 13.2287 37.5575C13.2043 37.5315 13.2042 37.4878 13.1796 37.4621C13.067 37.347 11.2754 37.147 9.4157 36.4402C9.35683 36.418 9.35072 36.4268 8.66822 36.1685C7.31537 35.6564 5.94904 34.8564 5.65706 34.6378C5.3581 34.414 5.0462 34.2518 4.63921 33.8983C4.47068 33.7518 4.33704 33.684 4.14619 33.5073C3.19451 32.6261 2.95409 32.2648 2.87122 32.1395C2.73486 31.9335 2.68913 31.9662 2.49483 31.6333C2.33675 31.3627 2.30412 31.3853 2.15554 31.1084C0.865388 28.705 0.989849 27.0373 1.01443 26.2206C1.02655 25.8199 1.05934 25.8244 1.11913 25.4665C1.16593 25.1856 1.12333 25.1786 1.21721 24.8303C1.26583 24.6495 1.24001 24.6469 1.28082 24.4659C1.32502 24.2698 1.35069 24.2792 1.38685 24.0829C1.41989 23.9043 1.74442 22.8067 1.76722 22.6966C1.82041 22.4409 1.85628 22.4503 1.89843 22.1929C1.94077 21.9345 1.98129 21.9445 2.02036 21.6867C2.06478 21.393 2.11808 21.3223 2.13831 21.1817C2.19739 20.7694 2.60414 18.8088 3.04086 17.5357C3.19651 17.0824 3.92941 15.2817 4.02293 15.1395C4.03891 15.1153 4.14616 14.9521 4.20848 14.8427L4.43378 14.3867C4.49385 14.2755 4.56155 14.1681 4.7015 13.956C5.06205 13.4094 4.59804 12.6501 4.53451 11.9693C4.51367 11.7477 4.43054 11.5655 4.41921 11.4644C4.39298 11.229 4.43783 11.2228 4.34499 10.8481C4.28064 10.5883 4.25613 10.2355 4.29065 7.68719C4.29584 7.30941 4.34047 7.31721 4.38607 7.05766C4.45124 6.68682 4.34267 6.61515 4.48017 6.16571C4.59041 5.80464 4.48332 5.78508 4.60343 5.40762C4.68444 5.15234 4.66169 4.89658 4.68957 4.8046C4.74875 4.61054 4.76794 4.61756 4.79427 4.4123C4.82731 4.15462 4.88314 4.16911 4.92018 3.90868C4.95686 3.65048 5.00988 3.66398 5.04741 3.40505C5.07068 3.25253 5.74633 1.21538 5.80285 1.15861ZM15.169 35.3482C14.8398 35.4323 14.5112 35.4484 14.2797 35.4396C14.5497 35.4499 14.9521 35.4262 15.3333 35.3005L15.169 35.3482ZM14.4082 30.7387L14.4215 30.7426L14.444 30.732L14.4082 30.7387ZM13.7098 30.5584H13.723C13.6929 30.5372 13.6557 30.5125 13.613 30.4855C13.6504 30.5114 13.6827 30.5365 13.7098 30.5584Z" fill="#8B3DFF"/>
<path d="M22.248 27.2779C21.4122 27.0705 20.7871 26.7817 19.2494 26.9602C18.6069 27.0347 18.323 27.1868 17.9159 27.2919C17.3275 27.6968 16.9121 28.3032 17.793 29.475C18.2928 30.1398 19.3495 30.6143 19.4703 30.7681C19.5333 30.8311 19.8485 30.8311 20.0376 30.8942L20.4159 30.8311L20.7568 30.6389C21.0757 30.4479 22.3075 29.9389 22.7827 28.6362C23.0776 27.8276 22.3408 27.3528 22.248 27.2779Z" fill="#432184"/>
</svg>
