<svg width="199" height="122" viewBox="0 0 199 122" fill="none" xmlns="http://www.w3.org/2000/svg">
<path fill-rule="evenodd" clip-rule="evenodd" d="M131.397 14.7796C146.145 11.6877 153.48 19.6148 154.779 20.6048C155.267 20.9768 155.247 20.553 156.272 19.6548C161.358 15.198 171.074 12.2292 180.383 15.2788C197.777 20.9765 195.896 39.1119 195.896 41.1997C195.896 43.4702 198.047 43.9908 198.707 47.389C201.049 59.45 188.854 64.8017 179.575 59.9847C178.03 59.1828 178.165 60.8877 172.747 61.689C170.227 62.0615 178.325 62.3861 178.595 73.0185C179.492 108.247 169.356 115.028 168.252 116.076C157.268 126.507 128.634 122.446 133.023 105.669C133.261 104.762 131.963 105.805 130.225 106.428C118.389 110.671 110.02 106.556 108 106.064C107.454 105.931 106.568 108.377 103.767 109.854C96.3516 113.763 89.6172 109.74 89.1445 109.645C88.5622 109.528 83.2026 112.58 76.4674 111.391C70.4144 110.323 69.7172 108.555 68.9454 109.661C68.2998 110.586 68.3257 110.581 67.5931 111.418C61.8875 117.929 39.1249 119.879 30.1276 112.312C19.6765 103.522 23.2141 74.9416 24.5954 69.3376C26.1761 62.9262 29.3834 61.4432 27.7706 61.5645C3.46331 63.3955 0.633331 50.0154 0.0975179 35.8534C-0.622437 16.822 2.84444 10.7645 3.92733 8.87238C10.8256 -3.18131 33.1769 -0.372726 40.3863 2.46908C45.4457 4.46311 47.1607 10.3247 46.3605 14.453C45.7264 17.725 44.0821 19.291 45.4865 18.3379C51.4948 14.2609 55.3798 14.9997 58.7746 14.8559C59.3444 14.8317 59.0311 12.8171 59.0975 10.7952C59.2746 5.41451 63.7408 0.638366 69.7265 0.129864C84.3072 -1.10929 83.3488 13.425 83.4459 15.0231C83.5563 16.835 88.451 12.5837 96.1016 17.3992C98.1271 18.6741 98.5281 21.1541 99.3916 19.8795C104.091 12.9429 116.125 13.1994 120.21 20.029C121.111 21.5354 121.658 17.2911 131.397 14.7796Z" fill="#6D3DF2"/>
<path fill-rule="evenodd" clip-rule="evenodd" d="M125.516 18.3795C127.132 17.5291 136.968 12.3529 148.324 17.6651C154.519 20.5635 154.205 23.4853 155.798 21.8869C166.375 11.2694 183.157 15.1435 188.987 22.0829C197.618 32.3557 193.049 41.025 195.071 43.3315C200.201 49.1863 197.197 57.6433 191.052 59.6058C183.104 62.1441 180.011 57.5521 178.445 58.3636C172.794 61.2913 172.033 59.7767 170.88 60.8982C169.233 62.5 172.973 62.993 175.202 65.9787C176.212 67.3322 178.41 70.2779 176.987 87.0126C175.361 106.125 170.842 110.812 170.086 111.874C160.814 124.9 138.063 121.471 134.598 112.301C132.406 106.502 136.623 102.86 134.759 102.606C134.083 102.514 127.4 108.446 114.773 106.49C108.49 105.517 107.827 103.176 106.508 105.261C102.724 111.247 94.811 111.065 90.2339 108.504C88.6251 107.603 88.5457 108.176 86.878 108.913C78.4505 112.635 70.6239 108.061 69.4126 107.353C68.0775 106.573 68.8109 109.078 64.8665 111.96C59.5397 115.852 39.9215 118.071 31.7455 111.758C29.9888 110.401 23.7992 105.622 24.2782 85.0405C24.7284 65.6862 28.5264 63.5629 30.5291 61.3377C31.0377 60.7729 30.9239 59.8843 29.7501 60.0023C5.76714 62.4113 2.54466 51.1325 1.65464 38.8614C0.0719804 17.042 4.31062 10.5833 5.65311 8.53772C11.3134 -0.0876621 27.954 0.745485 35.9205 2.36334C49.2516 5.07028 44.8635 16.977 42.9615 19.1402C42.8517 19.265 41.4794 20.8257 42.9542 21.2173C43.5176 21.3668 44.91 20.2473 45.0578 20.1285C51.7097 14.7797 59.538 16.3176 60.1447 16.259C60.9939 16.1771 60.3379 13.8243 60.4694 10.9938C60.7799 4.30979 66.2431 1.89398 68.8999 1.50965C82.8696 -0.511409 81.9334 13.1078 82.0725 14.9376C82.1992 16.6062 81.963 17.5359 83.5668 17.015C85.4237 16.4119 94.9402 14.2889 98.1616 22.2577C98.4533 22.9796 99.3106 22.914 99.6139 22.2749C103.961 13.1145 116.293 15.0683 119.368 21.0903C120.549 23.4059 121.126 21.2686 125.516 18.3795Z" fill="white"/>
<path fill-rule="evenodd" clip-rule="evenodd" d="M67.7309 54.2777C50.8436 60.0906 40.2034 48.7498 42.2568 34.9417C44.3173 21.0849 59.2747 18.3233 65.736 24.0092C65.7937 24.0601 66.7009 24.8584 66.6742 24.2344C66.6739 24.2305 65.8782 16.0384 65.7639 11.8369C65.6777 8.67077 67.0397 6.48134 71.9788 6.58299C76.9132 6.68491 76.5334 10.7 76.9754 16.9101C77.1114 18.8197 78.1042 32.7635 77.0729 40.8398C75.7841 50.9341 70.1284 53.0749 67.7309 54.2777Z" fill="#6D3DF2"/>
<path fill-rule="evenodd" clip-rule="evenodd" d="M31.3458 69.5296C31.8988 68.1054 31.8633 68.0995 32.6688 66.8037C33.3522 65.7051 35.8646 61.6658 48.0512 61.8066C62.9117 61.9783 62.7665 64.9463 62.9008 66.7491C63.7511 78.1547 48.1903 67.3759 43.0292 72.9807C41.1366 75.0358 41.4344 80.7098 41.493 80.8619C41.7518 81.5314 49.2439 80.7315 53.4025 80.7008C57.6657 80.6693 58.6362 84.7125 57.883 87.0075C56.2503 91.9833 47.7558 89.6131 41.8227 90.2987C41.4305 90.3441 41.3632 91.6832 41.6943 94.8876C42.5376 103.045 50.3183 100.345 56.2446 99.2454C66.7962 97.2871 63.1502 106.313 63.1215 106.366C60.626 110.923 39.9996 112.649 34.0367 106.936C28.6757 101.799 28.4398 81.2696 31.3458 69.5296Z" fill="#6D3DF2"/>
<path fill-rule="evenodd" clip-rule="evenodd" d="M33.3902 43.8291C34.7079 43.6311 34.6989 43.6275 34.8132 43.6151C38.6205 43.2082 39.9193 45.4323 40.1645 46.7508C41.2632 52.6625 37.8014 53.9861 29.1763 54.8463C13.7959 56.3803 10.4887 51.1393 10.3302 50.9658C6.32356 46.5791 6.41535 31.0915 6.66988 26.4786C7.43291 12.6525 8.80215 6.31678 25.8068 6.64255C37.3036 6.86273 39.8177 8.54085 39.9027 11.8371C40.2262 24.3858 21.0276 9.90586 18.8942 20.313C18.8044 20.7508 17.7527 25.8817 19.0499 25.8986C25.7339 25.9865 34.0839 23.7914 34.6834 29.0335C35.5849 36.9206 29.1174 34.8317 19.0429 35.1305C18.313 35.1522 18.4167 36.1371 18.5853 38.8592C19.089 47 24.7051 45.5573 33.3902 43.8291Z" fill="#6D3DF2"/>
<path fill-rule="evenodd" clip-rule="evenodd" d="M64.7714 88.6991C64.7663 68.2335 83.2165 69.2308 88.8894 71.2079C102.073 75.8021 99.169 90.2359 99.6209 94.0477C99.912 96.5037 101.371 95.7432 102.26 98.0399C103.995 102.527 99.6676 106.6 93.6462 104.229C89.4844 102.59 90.5019 98.0298 89.3805 100.208C86.6203 105.568 78.5003 105.817 73.7304 103.782C64.8406 99.9898 64.8617 90.0489 64.7714 88.6991Z" fill="#6D3DF2"/>
<path fill-rule="evenodd" clip-rule="evenodd" d="M165.428 54.4698C165.143 54.3693 163.222 53.8368 161.297 52.5704C155.14 48.5198 154.423 39.6348 154.931 35.7563C157.339 17.3838 178.738 17.7053 185.391 25.9633C192.613 34.9268 187.01 43.8138 190.598 46.3571C194.315 48.9917 192.569 55.5471 186.303 55.0805C180.967 54.6835 180.231 51.2879 179.877 50.3584C179.607 49.65 179.196 51.1057 178.606 51.7423C173.955 56.7614 167.662 54.9749 165.428 54.4698Z" fill="#6D3DF2"/>
<path fill-rule="evenodd" clip-rule="evenodd" d="M139.966 86.433C139.846 85.3138 139.359 80.7934 139.378 72.3732C139.393 66.0071 147.832 66.6153 149.561 69.635C151.675 73.3246 147.684 88.1742 154.23 89.9835C162.973 92.4008 161.053 78.3384 160.917 72.6548C160.816 68.4677 164.265 67.5489 165.201 67.4262C172.763 66.4354 172.191 71.7946 172.042 79.6961C171.565 104.925 165.522 114.792 153.633 115.053C135.807 115.445 139.239 107.09 140.156 105.906C143.734 101.289 149.728 108.931 155.809 104.923C158.786 102.961 159.689 97.8907 159.635 97.6725C159.468 96.9888 159.233 97.5415 158.649 97.9059C156.988 98.9426 153.637 99.3314 151.385 99.1065C140.735 98.0436 140.131 87.2682 139.966 86.433Z" fill="#6D3DF2"/>
<path fill-rule="evenodd" clip-rule="evenodd" d="M118.688 87.4232C117.894 87.1746 117.899 87.176 117.831 87.1546C116.303 86.6782 104.564 84.2089 105.192 76.3136C106.143 64.345 121.349 63.6976 129.962 67.6322C135.726 70.2654 133.763 77.0913 128.58 76.5673C126.376 76.3443 118.955 71.4781 116.875 75.2499C114.292 79.9337 131.958 77.6893 134.668 87.3286C137.578 97.6836 126.795 102.561 117.607 101.551C104.444 100.103 102.507 92.9559 106.088 90.4438C109.393 88.1257 113.115 90.7603 114.144 91.3617C119.507 94.4983 123.208 92.366 123.429 90.9422C123.807 88.5165 119.99 87.7932 118.688 87.4232Z" fill="#6D3DF2"/>
<path fill-rule="evenodd" clip-rule="evenodd" d="M92.8637 23.3475C95.7646 28.2445 90.1131 44.6827 98.1846 46.0505C108.324 47.7683 102.379 27.6445 104.908 23.3701C106.39 20.8647 115.223 19.1844 115.338 26.4779C115.623 44.4191 114.076 46.1699 113.521 47.536C109.449 57.5653 94.7898 56.4247 90.0399 53.7245C85.1987 50.9725 83.8123 46.6716 83.1962 42.8173C82.9862 41.5027 82.128 36.1327 82.5695 26.1882C82.824 20.4531 90.3088 20.1586 92.8637 23.3475Z" fill="#6D3DF2"/>
<path fill-rule="evenodd" clip-rule="evenodd" d="M144.032 33.2765C141.635 31.4432 141.811 31.1465 140.402 30.703C129.336 27.2232 128.722 44.2188 136.193 45.5717C140.409 46.3353 142.007 44.4883 143.256 43.415C146.162 40.9172 151.078 41.3635 152.279 44.7631C154.355 50.6396 145.03 55.4681 138.429 55.3521C117.528 54.9849 118.077 36.4778 122.314 28.9714C128.212 18.5218 140.433 20.3708 144.086 21.6265C157.671 26.2957 150.543 37.6204 144.032 33.2765Z" fill="#6D3DF2"/>
<path fill-rule="evenodd" clip-rule="evenodd" d="M85.8802 94.1773C82.4446 96.9817 76.3563 94.7137 76.0973 88.7136C76.0466 87.5437 75.3137 80.7941 81.5683 79.7945C86.2026 79.054 87.808 83.0767 88.031 83.6353C88.7445 85.4232 89.0258 89.9209 87.3302 92.5614C86.5683 93.7479 86.2749 93.8186 85.8802 94.1773Z" fill="white"/>
<path fill-rule="evenodd" clip-rule="evenodd" d="M64.6373 43.6358C64.4 43.9022 62.5439 47.1007 57.3449 45.6118C51.5129 43.9416 50.8923 29.1844 61.2803 30.9993C65.6107 31.7556 67.719 38.4255 64.6373 43.6358Z" fill="white"/>
<path fill-rule="evenodd" clip-rule="evenodd" d="M176.644 43.8605C176.164 44.2299 175.425 45.3511 172.782 45.6281C163.11 46.6417 163.711 27.4738 174.435 30.5451C178.291 31.6497 180.557 38.459 176.644 43.8605Z" fill="white"/>
</svg>
