<svg width="40" height="41" viewBox="0 0 40 41" fill="none" xmlns="http://www.w3.org/2000/svg">
<path fill-rule="evenodd" clip-rule="evenodd" d="M7.45269 0.0116271L7.50559 0.0136799C7.45216 0.207635 7.46711 9.86149 7.49775 9.96365C7.70349 10.6497 8.36231 10.611 8.45431 10.6057C8.93975 10.5773 11.1646 8.58481 11.4534 8.55102C11.5974 8.53412 13.5765 10.1251 13.9964 10.4099C14.6177 10.8314 15.2694 10.5615 15.4147 9.91165C15.4911 9.57006 15.4165 0.892925 15.4535 0.0127852C17.4277 -0.0108473 28.2863 0.00520561 29.4022 0.00683725C31.0354 0.0092584 31.2394 0.0239957 31.3987 0.0355225C31.5572 0.064471 31.7157 0.09342 31.8742 0.122369C32.4999 0.305586 32.6555 0.375221 33.3446 0.913821C33.6028 1.11314 34.0192 1.6588 34.1195 1.86686C34.3313 2.30414 34.2906 2.31761 34.5081 2.74816C34.5411 2.75716 34.574 2.7661 34.607 2.7751C36.0304 2.99938 36.7203 3.6444 37.2123 4.79108C37.4778 5.40963 37.398 6.28814 37.4115 7.43645C37.3938 13.6994 37.4501 35.4303 37.3757 36.1172C37.3451 36.3996 37.1878 36.9411 37.1673 37.0116C37.0032 37.44 36.9779 37.5602 36.4865 38.2589C36.4206 38.3531 36.4229 38.3496 36.3485 38.4361C36.1846 38.5899 36.1424 38.6538 35.98 38.8042C34.7581 39.9643 33.2841 39.9782 32.9737 39.9973C32.8526 39.9964 31.6043 39.9872 31.4597 39.9957C31.341 39.993 30.6086 39.9759 29.9751 39.9963C29.858 39.9932 29.1544 39.9749 28.5115 39.9978C27.5742 39.9787 27.2931 39.9884 26.9748 39.9969C26.774 39.9803 26.7745 39.9933 24.457 39.9936C23.7408 39.9846 23.7444 39.9877 23.0274 39.9953C22.9061 39.9936 22.0757 39.9819 21.5118 39.9967C21.3932 39.9945 20.768 39.9828 20.0282 39.9965C19.9025 39.9939 18.9294 39.9744 18.4565 39.9924C17.0521 39.994 17.0548 39.9928 16.9746 39.9958C16.8534 39.9939 15.8123 39.9775 15.4586 39.9963C15.3358 39.9941 14.3965 39.9767 13.9228 40C13.5294 39.992 13.2134 39.9736 12.5085 39.9961C10.6557 39.9827 10.1298 39.9941 9.92305 39.9986C8.88733 39.9779 8.87633 39.9975 8.39768 39.988C8.22177 39.9849 7.89918 40.0313 6.87372 39.8462C6.75429 39.8084 6.63492 39.7707 6.51555 39.7329C6.35733 39.6844 5.94779 39.568 5.40387 39.2642C4.70332 38.8592 4.40204 38.5392 4.19672 38.3266C4.06771 38.1958 3.96176 38.0709 3.94224 38.0479C3.54275 37.6059 3.24095 37.0068 3.19184 36.9094C2.39002 35.1793 2.63261 35.0949 2.59529 27.4359C2.57845 23.9818 2.59092 7.04985 2.59224 5.27715C2.59339 3.67698 2.44418 3.03659 3.41269 1.60248C3.61538 1.3361 3.76339 1.18367 3.79644 1.14962C4.46652 0.508226 4.77364 0.428012 5.19244 0.234162C5.95663 -0.0403751 6.2678 0.000942464 7.45269 0.0116271Z" fill="#57BDCE"/>
<path fill-rule="evenodd" clip-rule="evenodd" d="M35.8917 35.7067C34.818 37.9751 32.5433 37.6564 31.7697 37.6577C29.8582 37.661 8.60042 37.6978 7.87502 37.6362C4.91175 37.385 3.71286 33.3562 6.41186 31.6126C7.35953 31.0004 7.98644 31.099 11.2952 31.0965C32.2028 31.0809 32.2198 31.1681 32.7622 30.993C34.5745 30.4078 34.5925 28.6874 34.5951 28.4357C34.598 28.1624 34.593 5.94265 34.5977 4.6455C34.5986 4.3987 34.5629 3.91931 34.6665 3.95089C34.803 3.99252 35.3751 4.38248 35.6418 4.76708C36.2671 5.66854 36.1764 5.74864 36.1761 10.1721C36.1749 34.5659 36.2007 34.5713 36.115 35.0109C36.0403 35.394 35.9024 35.6807 35.8917 35.7067Z" fill="#EBECE9"/>
<path fill-rule="evenodd" clip-rule="evenodd" d="M7.50559 0.0136528C8.2062 0.00554718 14.5028 0.00681048 15.4535 0.0127581C15.4165 0.892898 15.4911 9.57003 15.4147 9.91162C15.2694 10.5614 14.6177 10.8314 13.9964 10.4099C13.5765 10.1251 11.5974 8.5341 11.4534 8.55099C11.1646 8.58478 8.93975 10.5772 8.45431 10.6056C8.36231 10.611 7.70349 10.6497 7.49775 9.96362C7.46712 9.86146 7.45217 0.207608 7.50559 0.0136528Z" fill="#EA6966"/>
<path fill-rule="evenodd" clip-rule="evenodd" d="M27.5283 23.9108C27.6159 24.6075 27.9532 25.2427 27.2869 25.5879C26.6827 25.9009 25.3255 24.5379 24.7618 24.8015C23.529 25.3778 22.9606 25.9229 22.4625 25.4672C22.1449 25.1766 22.2494 24.9881 22.3865 23.9063C22.3904 23.8749 22.4539 23.6741 22.4569 23.646C22.5228 23.0329 22.5952 22.9852 22.3252 22.7126C21.3224 21.7002 20.7065 21.347 21.1417 20.7046C21.4716 20.2176 23.3405 20.345 23.5257 20.0462C24.1238 19.0813 24.2826 17.8387 25.1856 18.0571C25.6936 18.18 26.2108 20.0514 26.5605 20.1485C27.762 20.4821 28.9633 20.1418 28.9071 21.2211C28.8809 21.7237 27.4394 22.6748 27.4154 23.0159C27.3893 23.3863 27.4564 23.378 27.5283 23.9108Z" fill="#A98DD1"/>
<path fill-rule="evenodd" clip-rule="evenodd" d="M19.4709 11.4517C19.5314 11.5192 22.6918 14.4956 22.8166 14.5858C16.5038 21.3745 16.5038 21.3724 16.071 21.843C15.9049 21.6328 12.8145 18.768 12.7251 18.7121C13.1246 18.2614 13.1336 18.2768 13.5388 17.8369C14.0111 17.3241 17.7031 13.3163 19.4709 11.4517Z" fill="#FCD98E"/>
<path fill-rule="evenodd" clip-rule="evenodd" d="M14.9802 18.417C15.0675 17.7186 15.2626 17.7994 18.5135 14.2313C19.624 13.0123 20.9012 14.2256 20.4677 15.2492C20.3958 15.4191 20.3676 15.4855 18.9511 16.9866C16.6998 19.3721 16.6214 19.6576 15.9115 19.5533C15.0589 19.4281 14.9894 18.5341 14.9802 18.417Z" fill="#FAC265"/>
<path fill-rule="evenodd" clip-rule="evenodd" d="M19.4708 11.4516C19.9043 10.9876 20.1836 10.5279 20.8023 10.8911C20.9403 10.9721 20.9927 10.9199 21.3317 10.7911C23.1137 10.1141 23.4393 9.73356 23.8886 10.3238C24.2136 10.7508 23.1072 12.9595 23.2687 13.2102C23.6295 13.7705 23.4603 13.8967 22.8165 14.5857C22.6917 14.4955 19.5313 11.5192 19.4708 11.4516Z" fill="#F7C369"/>
<path fill-rule="evenodd" clip-rule="evenodd" d="M12.7251 18.7121C12.8145 18.768 15.9048 21.6328 16.071 21.843C15.7783 22.1587 15.143 23.1412 14.3018 22.3379C12.2345 20.3637 12.1716 20.4089 12.0651 20.1538C11.8005 19.52 12.4071 19.0541 12.7251 18.7121Z" fill="#F7C36A"/>
</svg>
