<svg width="45" height="46" viewBox="0 0 45 46" fill="none" xmlns="http://www.w3.org/2000/svg">
<g filter="url(#filter0_d_402_91734)">
<rect x="2" y="2" width="40" height="40" rx="20" fill="#FFCC00"/>
<rect x="1" y="1" width="42" height="42" rx="21" stroke="white" stroke-width="2"/>
<rect x="5" y="5" width="34" height="34" rx="17" fill="#FFB700"/>
<path d="M21.525 12.295C21.5689 12.2065 21.6366 12.1319 21.7205 12.0798C21.8044 12.0277 21.9012 12.0001 22 12.0001C22.0988 12.0001 22.1956 12.0277 22.2796 12.0798C22.3635 12.1319 22.4312 12.2065 22.475 12.295L24.785 16.974C24.9372 17.282 25.1618 17.5484 25.4397 17.7505C25.7175 17.9525 26.0402 18.0841 26.38 18.134L31.546 18.89C31.6439 18.9042 31.7359 18.9455 31.8115 19.0092C31.8872 19.0729 31.9435 19.1566 31.974 19.2506C32.0046 19.3447 32.0083 19.4454 31.9846 19.5415C31.9609 19.6375 31.9108 19.725 31.84 19.794L28.104 23.432C27.8576 23.6721 27.6733 23.9685 27.5669 24.2956C27.4604 24.6228 27.4351 24.9709 27.493 25.31L28.375 30.45C28.3923 30.5479 28.3817 30.6486 28.3445 30.7407C28.3073 30.8328 28.245 30.9126 28.1646 30.971C28.0842 31.0294 27.989 31.064 27.8899 31.0709C27.7908 31.0778 27.6917 31.0567 27.604 31.01L22.986 28.582C22.6817 28.4222 22.3432 28.3388 21.9995 28.3388C21.6559 28.3388 21.3173 28.4222 21.013 28.582L16.396 31.01C16.3084 31.0564 16.2094 31.0773 16.1105 31.0703C16.0115 31.0632 15.9165 31.0286 15.8363 30.9702C15.7561 30.9119 15.6939 30.8322 15.6567 30.7402C15.6195 30.6483 15.6089 30.5477 15.626 30.45L16.507 25.311C16.5652 24.9717 16.54 24.6234 16.4336 24.2961C16.3271 23.9687 16.1426 23.6722 15.896 23.432L12.16 19.795C12.0886 19.726 12.038 19.6384 12.014 19.5421C11.99 19.4458 11.9935 19.3446 12.0241 19.2502C12.0548 19.1558 12.1113 19.0719 12.1873 19.008C12.2633 18.9441 12.3557 18.9029 12.454 18.889L17.619 18.134C17.9593 18.0845 18.2824 17.9531 18.5606 17.751C18.8388 17.5489 19.0637 17.2823 19.216 16.974L21.525 12.295Z" stroke="#FDF5D6" stroke-width="2" stroke-linecap="round" stroke-linejoin="round"/>
</g>
<defs>
<filter id="filter0_d_402_91734" x="0" y="0" width="45" height="46" filterUnits="userSpaceOnUse" color-interpolation-filters="sRGB">
<feFlood flood-opacity="0" result="BackgroundImageFix"/>
<feColorMatrix in="SourceAlpha" type="matrix" values="0 0 0 0 0 0 0 0 0 0 0 0 0 0 0 0 0 0 127 0" result="hardAlpha"/>
<feOffset dx="1" dy="2"/>
<feComposite in2="hardAlpha" operator="out"/>
<feColorMatrix type="matrix" values="0 0 0 0 0.796078 0 0 0 0 0.823529 0 0 0 0 0.85098 0 0 0 1 0"/>
<feBlend mode="normal" in2="BackgroundImageFix" result="effect1_dropShadow_402_91734"/>
<feBlend mode="normal" in="SourceGraphic" in2="effect1_dropShadow_402_91734" result="shape"/>
</filter>
</defs>
</svg>
