<svg width="40" height="43" viewBox="0 0 40 43" fill="none" xmlns="http://www.w3.org/2000/svg">
<path fill-rule="evenodd" clip-rule="evenodd" d="M25.0097 4.75281C25.2121 4.97887 35.7919 14.9427 36.2099 15.2447C15.0771 37.9708 15.0769 37.9637 13.6282 39.5391C13.072 38.8354 2.72655 29.2451 2.42737 29.058C3.76471 27.549 3.79483 27.6007 5.1512 26.1282C6.73257 24.4115 19.0919 10.9948 25.0097 4.75281Z" fill="#FCD98E"/>
<path fill-rule="evenodd" clip-rule="evenodd" d="M9.97644 28.0701C10.2686 25.7323 10.9217 26.0028 21.8044 14.058C25.5222 9.97726 29.7976 14.0391 28.3464 17.4656C28.1056 18.0344 28.0113 18.2566 23.2693 23.2817C15.733 31.2677 15.4706 32.2232 13.0941 31.8742C10.2399 31.455 10.0071 28.4623 9.97644 28.0701Z" fill="#FAC265"/>
<path fill-rule="evenodd" clip-rule="evenodd" d="M25.0096 4.75282C26.4608 3.19946 27.3957 1.66056 29.4669 2.87632C29.9287 3.14749 30.1042 2.97288 31.2391 2.54172C37.2044 0.275473 38.2946 -0.998609 39.7988 0.977268C40.8868 2.40658 37.1829 9.8007 37.7233 10.6399C38.9312 12.5155 38.3649 12.9381 36.2098 15.2447C35.7919 14.9427 25.2121 4.97888 25.0096 4.75282Z" fill="#F7C369"/>
<path fill-rule="evenodd" clip-rule="evenodd" d="M2.42732 29.058C2.7265 29.2451 13.0719 38.8353 13.6282 39.5391C12.6482 40.5959 10.5215 43.8848 7.70566 41.1959C0.784981 34.5869 0.574425 34.7382 0.217978 33.8844C-0.667766 31.7626 1.36273 30.2029 2.42732 29.058Z" fill="#F7C36A"/>
</svg>
